<?xml version="1.0" encoding="UTF-8" standalone="no"?>
<!-- Created with Inkscape (http://www.inkscape.org/) -->

<svg
   xmlns:dc="http://purl.org/dc/elements/1.1/"
   xmlns:cc="http://creativecommons.org/ns#"
   xmlns:rdf="http://www.w3.org/1999/02/22-rdf-syntax-ns#"
   xmlns:svg="http://www.w3.org/2000/svg"
   xmlns="http://www.w3.org/2000/svg"
   xmlns:sodipodi="http://sodipodi.sourceforge.net/DTD/sodipodi-0.dtd"
   xmlns:inkscape="http://www.inkscape.org/namespaces/inkscape"
   width="155.90552"
   height="109.84252"
   id="svg2"
   version="1.1"
   inkscape:version="0.48.4 r9939"
   sodipodi:docname="remote.svg">
  <defs
     id="defs4">
    <marker
       inkscape:stockid="Arrow2Mend"
       orient="auto"
       refY="0.0"
       refX="0.0"
       id="Arrow2Mend"
       style="overflow:visible;">
      <path
         id="path4888"
         style="fill-rule:evenodd;stroke-width:0.62500000;stroke-linejoin:round;"
         d="M 8.7185878,4.0337352 L -2.2072895,0.016013256 L 8.7185884,-4.0017078 C 6.9730900,-1.6296469 6.9831476,1.6157441 8.7185878,4.0337352 z "
         transform="scale(0.6) rotate(180) translate(0,0)" />
    </marker>
    <inkscape:path-effect
       effect="spiro"
       id="path-effect4855"
       is_visible="true" />
    <inkscape:path-effect
       effect="spiro"
       id="path-effect4108"
       is_visible="true" />
    <inkscape:path-effect
       effect="spiro"
       id="path-effect3843"
       is_visible="true" />
    <inkscape:path-effect
       effect="spiro"
       id="path-effect3839"
       is_visible="true" />
    <inkscape:path-effect
       effect="spiro"
       id="path-effect3777"
       is_visible="true" />
    <inkscape:path-effect
       effect="spiro"
       id="path-effect3773"
       is_visible="true" />
    <inkscape:path-effect
       effect="spiro"
       id="path-effect3777-3"
       is_visible="true" />
    <inkscape:path-effect
       effect="spiro"
       id="path-effect3777-7"
       is_visible="true" />
    <inkscape:path-effect
       effect="spiro"
       id="path-effect3843-3"
       is_visible="true" />
    <inkscape:path-effect
       effect="spiro"
       id="path-effect3843-6"
       is_visible="true" />
    <inkscape:path-effect
       effect="spiro"
       id="path-effect3777-9"
       is_visible="true" />
    <inkscape:path-effect
       effect="spiro"
       id="path-effect3777-2"
       is_visible="true" />
    <inkscape:path-effect
       effect="spiro"
       id="path-effect3839-9"
       is_visible="true" />
    <inkscape:path-effect
       effect="spiro"
       id="path-effect3843-3-6"
       is_visible="true" />
    <inkscape:path-effect
       effect="spiro"
       id="path-effect3843-3-6-6"
       is_visible="true" />
    <marker
       inkscape:stockid="Arrow2Mend"
       orient="auto"
       refY="0"
       refX="0"
       id="Arrow2Mend-3"
       style="overflow:visible">
      <path
         inkscape:connector-curvature="0"
         id="path4888-6"
         style="fill-rule:evenodd;stroke-width:0.625;stroke-linejoin:round"
         d="M 8.7185878,4.0337352 -2.2072895,0.01601326 8.7185884,-4.0017078 c -1.7454984,2.3720609 -1.7354408,5.6174519 -6e-7,8.035443 z"
         transform="scale(-0.6,-0.6)" />
    </marker>
    <inkscape:path-effect
       effect="spiro"
       id="path-effect4855-1"
       is_visible="true" />
  </defs>
  <sodipodi:namedview
     id="base"
     pagecolor="#ffffff"
     bordercolor="#666666"
     borderopacity="1.0"
     inkscape:pageopacity="0.0"
     inkscape:pageshadow="2"
     inkscape:zoom="14.82"
     inkscape:cx="122.88344"
     inkscape:cy="20.488771"
     inkscape:document-units="px"
     inkscape:current-layer="layer1"
     showgrid="false"
     showguides="false"
     inkscape:window-width="1366"
     inkscape:window-height="713"
     inkscape:window-x="0"
     inkscape:window-y="30"
     inkscape:window-maximized="1" />
  <metadata
     id="metadata7">
    <rdf:RDF>
      <cc:Work
         rdf:about="">
        <dc:format>image/svg+xml</dc:format>
        <dc:type
           rdf:resource="http://purl.org/dc/dcmitype/StillImage" />
      </cc:Work>
    </rdf:RDF>
  </metadata>
  <g
     inkscape:label="Capa 1"
     inkscape:groupmode="layer"
     id="layer1"
     transform="translate(0,-942.51966)">
    <path
       sodipodi:type="arc"
       style="fill:#c8beb7;fill-opacity:1;stroke:#4f0d29;stroke-width:0.7;stroke-linecap:round;stroke-linejoin:round;stroke-miterlimit:4;stroke-opacity:1;stroke-dasharray:none"
       id="path2985"
       sodipodi:cx="76.190697"
       sodipodi:cy="15.205654"
       sodipodi:rx="13.050847"
       sodipodi:ry="2.3331122"
       d="m 89.241544,15.205654 c 0,1.288542 -5.843063,2.333112 -13.050847,2.333112 -7.207784,0 -13.050847,-1.04457 -13.050847,-2.333112 0,-1.288542 5.843063,-2.333112 13.050847,-2.333112 7.207784,0 13.050847,1.04457 13.050847,2.333112 z"
       transform="translate(0,942.51966)" />
    <path
       style="fill:none;stroke:#4f0d29;stroke-width:0.69999999;stroke-linecap:butt;stroke-linejoin:miter;stroke-miterlimit:4;stroke-opacity:1;stroke-dasharray:none"
       d="m 63.143932,15.316555 -0.441539,23.8035 26.451955,0.599208 0.03866,-24.34582"
       id="path3771"
       inkscape:path-effect="#path-effect3773"
       inkscape:original-d="m 63.143932,15.316555 -0.441539,23.8035 c 21.451378,-11.167815 17.789071,0.399472 26.451955,0.599208 l 0.03866,-24.34582"
       inkscape:connector-curvature="0"
       transform="translate(0,942.51966)"
       sodipodi:nodetypes="cccc" />
    <path
       style="fill:none;stroke:#4f0d29;stroke-width:0.69999999;stroke-linecap:butt;stroke-linejoin:miter;stroke-miterlimit:4;stroke-opacity:1;stroke-dasharray:none"
       d="m 62.954645,21.053898 3.561968,0.791258 3.93271,0.501631 c 1.730637,0.114638 3.464184,0.185336 5.198408,0.212003 1.318746,0.02028 2.638013,0.0151 3.956248,-0.02685 1.534021,-0.04881 3.066458,-0.147418 4.594085,-0.295608 l 2.643126,-0.56507 2.359478,-0.880139"
       id="path3775"
       inkscape:path-effect="#path-effect3777"
       inkscape:original-d="m 62.954645,21.053898 3.561968,0.791258 3.93271,0.501631 5.198408,0.212003 3.956248,-0.02685 4.594085,-0.295608 2.643126,-0.56507 2.359478,-0.880139"
       inkscape:connector-curvature="0"
       transform="translate(0,942.51966)"
       sodipodi:nodetypes="cccccccc" />
    <text
       xml:space="preserve"
       style="font-size:3px;font-style:normal;font-weight:normal;text-align:center;line-height:125%;letter-spacing:0px;word-spacing:0px;text-anchor:middle;fill:#000000;fill-opacity:1;stroke:none;font-family:Sans"
       x="75.725037"
       y="986.25409"
       id="text3829"
       sodipodi:linespacing="125%"><tspan
         sodipodi:role="line"
         x="75.725037"
         y="986.25409"
         id="tspan3833">Repositorio central</tspan></text>
    <path
       sodipodi:type="arc"
       style="fill:#87de87;fill-opacity:1;stroke:#4f0d29;stroke-width:0.40000000000000002;stroke-linecap:round;stroke-linejoin:round;stroke-miterlimit:4;stroke-opacity:1;stroke-dasharray:none"
       id="path3835"
       sodipodi:cx="21.13402"
       sodipodi:cy="81.182732"
       sodipodi:rx="7.3195877"
       sodipodi:ry="1.4432989"
       d="m 28.453608,81.182732 c 0,0.797112 -3.277091,1.443299 -7.319588,1.443299 -4.042497,0 -7.319588,-0.646187 -7.319588,-1.443299 0,-0.797112 3.277091,-1.443299 7.319588,-1.443299 4.042497,0 7.319588,0.646187 7.319588,1.443299 z"
       transform="translate(0,942.51966)" />
    <path
       style="fill:none;stroke:#4f0d29;stroke-width:0.5;stroke-linecap:butt;stroke-linejoin:miter;stroke-miterlimit:4;stroke-opacity:1;stroke-dasharray:none"
       d="M 13.862945,81.304743 13.656031,92.7608 28.318737,92.882812 28.431338,81.351793"
       id="path3837"
       inkscape:path-effect="#path-effect3839"
       inkscape:original-d="m 13.862945,81.304743 c -0.04942,-0.293238 -0.148503,7.679612 -0.206914,11.456057 l 14.662706,0.122012 0.112601,-11.531019"
       inkscape:connector-curvature="0"
       transform="translate(0,942.51966)"
       sodipodi:nodetypes="cccc" />
    <path
       style="fill:none;stroke:#4f0d29;stroke-width:0.5;stroke-linecap:butt;stroke-linejoin:miter;stroke-miterlimit:4;stroke-opacity:1;stroke-dasharray:none"
       d="m 13.876021,1028.0755 1.045453,0.2851 1.045453,0.1267 c 0.433185,0.016 0.866188,0.037 1.298897,0.063 0.54907,0.033 1.097743,0.074 1.647382,0.095 0.717656,0.028 1.436132,0.023 2.154268,0.032 0.686442,0.01 1.372726,0.031 2.059227,0.032 0.739599,8e-4 1.479081,-0.024 2.217628,-0.063 0.475596,-0.025 0.950858,-0.057 1.425619,-0.095 l 1.488979,-0.2851"
       id="path3841"
       inkscape:path-effect="#path-effect3843"
       inkscape:original-d="m 13.876021,1028.0755 1.045453,0.2851 1.045453,0.1267 1.298897,0.063 1.647382,0.095 2.154268,0.032 2.059227,0.032 2.217628,-0.063 1.425619,-0.095 1.488979,-0.2851"
       inkscape:connector-curvature="0"
       sodipodi:nodetypes="cccccccccc" />
    <path
       style="fill:none;stroke:#4f0d29;stroke-width:0.5;stroke-linecap:butt;stroke-linejoin:miter;stroke-miterlimit:4;stroke-opacity:1;stroke-dasharray:none"
       d="m 14.000176,1031.5592 1.203856,0.3802 1.045453,0.1267 c 0.433185,0.016 0.866188,0.037 1.298897,0.063 0.54907,0.033 1.097743,0.074 1.647382,0.095 0.717656,0.028 1.436132,0.023 2.154268,0.032 0.686442,0.01 1.372726,0.031 2.059227,0.032 0.739599,8e-4 1.479081,-0.024 2.217628,-0.063 0.475596,-0.025 0.950858,-0.057 1.425619,-0.095 l 1.330577,-0.2218"
       id="path3841-5"
       inkscape:path-effect="#path-effect3843-3"
       inkscape:original-d="m 14.000176,1031.5592 1.203856,0.3802 1.045453,0.1267 1.298897,0.063 1.647382,0.095 2.154268,0.032 2.059227,0.032 2.217628,-0.063 1.425619,-0.095 1.330577,-0.2218"
       inkscape:connector-curvature="0"
       sodipodi:nodetypes="cccccccccc" />
    <path
       style="fill:none;stroke:#4f0d29;stroke-width:0.69999999;stroke-linecap:butt;stroke-linejoin:miter;stroke-miterlimit:4;stroke-opacity:1;stroke-dasharray:none"
       d="m 62.807145,969.93669 3.561968,0.79126 3.93271,0.50163 c 1.730638,0.11462 3.464184,0.18532 5.198408,0.21201 1.318746,0.0203 2.638013,0.0151 3.956248,-0.0268 1.534022,-0.0488 3.066459,-0.1474 4.594085,-0.29561 l 2.643126,-0.56507 2.359478,-0.88014"
       id="path3775-1"
       inkscape:path-effect="#path-effect3777-9"
       inkscape:original-d="m 62.807145,969.93669 3.561968,0.79126 3.93271,0.50163 5.198408,0.21201 3.956248,-0.0268 4.594085,-0.29561 2.643126,-0.56507 2.359478,-0.88014"
       inkscape:connector-curvature="0"
       sodipodi:nodetypes="cccccccc" />
    <path
       style="fill:none;stroke:#4f0d29;stroke-width:0.69999999;stroke-linecap:butt;stroke-linejoin:miter;stroke-miterlimit:4;stroke-opacity:1;stroke-dasharray:none"
       d="m 62.96158,975.49631 3.561968,0.79126 3.93271,0.50163 c 1.730638,0.11462 3.464184,0.18532 5.198408,0.21201 1.318746,0.0203 2.638013,0.0151 3.956248,-0.0268 1.534022,-0.0488 3.066459,-0.1474 4.594085,-0.29561 l 2.643126,-0.56507 2.359478,-0.88014"
       id="path3775-7"
       inkscape:path-effect="#path-effect3777-2"
       inkscape:original-d="m 62.96158,975.49631 3.561968,0.79126 3.93271,0.50163 5.198408,0.21201 3.956248,-0.0268 4.594085,-0.29561 2.643126,-0.56507 2.359478,-0.88014"
       inkscape:connector-curvature="0"
       sodipodi:nodetypes="cccccccc" />
    <path
       style="fill:#e3dbdb;fill-opacity:1;stroke:#4f0d29;stroke-width:0.03603465;stroke-linecap:round;stroke-linejoin:round;stroke-miterlimit:4;stroke-opacity:1;stroke-dasharray:none"
       d="m 74.423958,22.158272 c -2.823518,-0.09797 -3.62894,-0.156926 -5.739805,-0.420167 -1.826097,-0.227727 -2.278227,-0.303092 -3.642797,-0.607215 -0.856865,-0.190971 -1.571655,-0.360938 -1.588424,-0.377707 -0.01677,-0.01677 -0.01332,-1.040849 0.0077,-2.275736 0.02751,-1.6193 0.05416,-2.238322 0.09556,-2.220404 0.977888,0.423174 1.572566,0.606198 2.770944,0.852811 3.892092,0.800951 10.729688,1.020806 16.050222,0.516076 2.791951,-0.264856 4.945855,-0.693426 6.05082,-1.203951 l 0.383939,-0.177391 -6.73e-4,2.14586 -6.73e-4,2.14586 -1.067497,0.394779 c -0.907369,0.335561 -1.256682,0.434901 -2.328709,0.662255 -1.357608,0.28792 -2.286725,0.389337 -4.658766,0.508521 -1.534478,0.0771 -4.877154,0.10688 -6.331803,0.05641 z"
       id="path3917"
       inkscape:connector-curvature="0"
       transform="translate(0,942.51966)" />
    <path
       style="fill:#e3dbdb;fill-opacity:1;stroke:#4f0d29;stroke-width:0.03603465;stroke-linecap:round;stroke-linejoin:round;stroke-miterlimit:4;stroke-opacity:1;stroke-dasharray:none"
       d="m 73.857699,28.505063 c -1.764182,-0.0443 -3.643364,-0.185052 -5.378921,-0.402882 -1.538959,-0.193154 -2.095167,-0.287828 -3.517571,-0.598734 l -1.689562,-0.369301 0.02773,-0.235974 c 0.01525,-0.129785 0.04295,-1.390224 0.06156,-2.800974 l 0.03384,-2.565001 0.109395,0.02713 c 0.06017,0.01492 0.742428,0.167694 1.516133,0.339498 1.150683,0.255514 1.769107,0.358678 3.397553,0.566776 2.554583,0.326447 4.009573,0.410412 7.75636,0.447606 3.078379,0.03056 4.919226,-0.03026 7.20693,-0.238116 1.528454,-0.13887 3.292154,-0.526178 4.53007,-0.994802 l 0.875127,-0.331287 0.01333,2.729072 c 0.0073,1.500989 0.0033,2.739073 -0.0089,2.751296 -0.01222,0.01222 -0.514632,0.206984 -1.116465,0.432803 -0.952537,0.35741 -1.261373,0.446337 -2.384831,0.686697 -1.429778,0.305896 -2.113183,0.380839 -4.713882,0.516931 -1.264562,0.06617 -4.819004,0.08695 -6.717889,0.03927 l 0,0 z"
       id="path3919"
       inkscape:connector-curvature="0"
       transform="translate(0,942.51966)" />
    <path
       style="fill:#e3dbdb;fill-opacity:1;stroke:#4f0d29;stroke-width:0.03603465;stroke-linecap:round;stroke-linejoin:round;stroke-miterlimit:4;stroke-opacity:1;stroke-dasharray:none"
       d="m 74.012134,34.064695 c -1.765036,-0.04432 -3.643108,-0.185025 -5.378922,-0.402981 -1.568348,-0.196927 -2.085826,-0.285852 -3.643043,-0.62603 l -1.815035,-0.396499 0.0245,-0.234416 c 0.01348,-0.128929 0.03837,-1.183787 0.05531,-2.344129 0.01694,-1.160342 0.03888,-2.117785 0.04875,-2.127652 0.0099,-0.0099 0.697499,0.132896 1.528071,0.317253 1.832967,0.40685 4.476151,0.770916 6.426288,0.885141 4.163737,0.243883 8.177376,0.217012 11.762739,-0.07875 1.01588,-0.0838 1.370385,-0.137967 2.496687,-0.381468 1.098114,-0.237407 1.47053,-0.343081 2.278284,-0.646469 0.531077,-0.19947 0.977235,-0.362672 0.991462,-0.362672 0.01423,0 0.01985,1.079619 0.01249,2.399153 l -0.01338,2.399152 -1.029026,0.384694 c -0.875815,0.327417 -1.220721,0.425706 -2.316514,0.660145 -1.426341,0.305158 -2.111516,0.380248 -4.710778,0.516265 -1.264561,0.06617 -4.819004,0.08695 -6.717888,0.03927 z"
       id="path3921"
       inkscape:connector-curvature="0"
       transform="translate(0,942.51966)" />
    <path
       style="fill:#e3dbdb;fill-opacity:1;stroke:#4f0d29;stroke-width:0.03603465;stroke-linecap:round;stroke-linejoin:round;stroke-miterlimit:4;stroke-opacity:1;stroke-dasharray:none"
       d="m 75.752266,39.047208 c -6.942238,-0.159911 -12.633214,-0.301711 -12.646613,-0.31511 -0.02704,-0.02704 0.07075,-5.263692 0.09885,-5.293586 0.0097,-0.01034 0.765937,0.146274 1.68049,0.348021 1.369399,0.302084 1.980763,0.407914 3.464558,0.599728 4.179398,0.540283 9.974483,0.630186 14.825684,0.230001 1.015095,-0.08374 1.371255,-0.138118 2.496687,-0.381208 1.077295,-0.232693 1.473352,-0.34412 2.208621,-0.621377 0.492761,-0.185811 0.90117,-0.331757 0.907574,-0.324323 0.0064,0.0074 -5.15e-4,1.374468 -0.01534,3.037853 l -0.02699,3.024337 -0.185635,-0.0068 c -0.102099,-0.0037 -5.865648,-0.13763 -12.807885,-0.297541 z"
       id="path3923"
       inkscape:connector-curvature="0"
       transform="translate(0,942.51966)" />
    <path
       style="fill:#aaffcc;fill-opacity:1;stroke:#4f0d29;stroke-width:0.05460443;stroke-linecap:round;stroke-linejoin:round;stroke-miterlimit:4;stroke-opacity:1;stroke-dasharray:none"
       d=""
       id="path3946"
       inkscape:connector-curvature="0"
       transform="translate(0,942.51966)" />
    <path
       style="fill:#93ac9d;fill-opacity:1;stroke:#4f0d29;stroke-width:0.655;stroke-linecap:round;stroke-linejoin:round;stroke-miterlimit:4;stroke-opacity:1;stroke-dasharray:none"
       d="m 124.77645,1025.6055 c -0.93387,-0.072 -2.25261,-0.265 -2.93235,-0.4302 -0.6281,-0.1526 -1.42149,-0.4865 -1.47265,-0.6199 -0.14912,-0.3886 1.66674,-0.8985 4.04685,-1.1364 1.21608,-0.1216 4.8188,-0.1201 5.96749,0 2.41667,0.2578 4.11241,0.7105 4.0415,1.0787 -0.0848,0.4405 -2.05385,0.9175 -4.58755,1.1115 -1.1354,0.087 -3.89192,0.083 -5.06329,-0.01 z"
       id="path3964-0"
       inkscape:connector-curvature="0" />
    <path
       style="fill:none;stroke:#4f0d29;stroke-width:0.49523631;stroke-linecap:butt;stroke-linejoin:miter;stroke-miterlimit:4;stroke-opacity:1;stroke-dasharray:none"
       d="m 120.33099,1024.5368 -0.20291,11.4608 14.37873,0.1221 0.11042,-11.5358"
       id="path3837-3"
       inkscape:path-effect="#path-effect3839-9"
       inkscape:original-d="m 120.33099,1024.5368 c -0.0484,-0.2933 -0.14562,7.6828 -0.20291,11.4608 l 14.37873,0.1221 0.11042,-11.5358"
       inkscape:connector-curvature="0"
       sodipodi:nodetypes="cccc" />
    <path
       style="fill:none;stroke:#4f0d29;stroke-width:0.5;stroke-linecap:butt;stroke-linejoin:miter;stroke-miterlimit:4;stroke-opacity:1;stroke-dasharray:none"
       d="m 120.33182,1028.5234 1.20386,0.3802 1.04545,0.1267 c 0.43319,0.016 0.86619,0.037 1.2989,0.063 0.54907,0.033 1.09774,0.074 1.64738,0.095 0.71766,0.028 1.43613,0.023 2.15427,0.032 0.68644,0.01 1.37273,0.031 2.05923,0.032 0.7396,8e-4 1.47908,-0.024 2.21762,-0.063 0.4756,-0.025 0.95086,-0.057 1.42562,-0.095 l 1.33058,-0.2218"
       id="path3841-5-0"
       inkscape:path-effect="#path-effect3843-3-6"
       inkscape:original-d="m 120.33182,1028.5234 1.20386,0.3802 1.04545,0.1267 1.2989,0.063 1.64738,0.095 2.15427,0.032 2.05923,0.032 2.21762,-0.063 1.42562,-0.095 1.33058,-0.2218"
       inkscape:connector-curvature="0"
       sodipodi:nodetypes="cccccccccc" />
    <path
       style="fill:none;stroke:#4f0d29;stroke-width:0.5;stroke-linecap:butt;stroke-linejoin:miter;stroke-miterlimit:4;stroke-opacity:1;stroke-dasharray:none"
       d="m 120.05969,1032.046 1.20386,0.3802 1.04545,0.1267 c 0.43319,0.016 0.86619,0.037 1.2989,0.063 0.54907,0.033 1.09774,0.074 1.64738,0.095 0.71766,0.028 1.43613,0.023 2.15427,0.032 0.68644,0.01 1.37273,0.031 2.05923,0.032 0.7396,8e-4 1.47908,-0.024 2.21762,-0.063 0.4756,-0.025 0.95086,-0.057 1.42562,-0.095 l 1.33058,-0.2218"
       id="path3841-5-0-2"
       inkscape:path-effect="#path-effect3843-3-6-6"
       inkscape:original-d="m 120.05969,1032.046 1.20386,0.3802 1.04545,0.1267 1.2989,0.063 1.64738,0.095 2.15427,0.032 2.05923,0.032 2.21762,-0.063 1.42562,-0.095 1.33058,-0.2218"
       inkscape:connector-curvature="0"
       sodipodi:nodetypes="cccccccccc" />
    <text
       xml:space="preserve"
       style="font-size:3px;font-style:normal;font-weight:normal;text-align:center;line-height:125%;letter-spacing:0px;word-spacing:0px;text-anchor:middle;fill:#000000;fill-opacity:1;stroke:none;font-family:Sans"
       x="20.935432"
       y="1038.9178"
       id="text3829-6"
       sodipodi:linespacing="125%"><tspan
         sodipodi:role="line"
         id="tspan3831-1"
         x="21.412971"
         y="1038.9178">Tu </tspan><tspan
         sodipodi:role="line"
         x="20.935432"
         y="1042.6678"
         id="tspan3044">repositorio</tspan><tspan
         sodipodi:role="line"
         x="20.935432"
         y="1046.4178"
         id="tspan3833-8" /></text>
    <text
       xml:space="preserve"
       style="font-size:5px;font-style:normal;font-weight:normal;text-align:center;line-height:125%;letter-spacing:0px;word-spacing:0px;text-anchor:middle;fill:#000000;fill-opacity:1;stroke:none;font-family:Sans"
       x="127.10932"
       y="1039.8103"
       id="text3829-7"
       sodipodi:linespacing="125%"><tspan
         sodipodi:role="line"
         id="tspan3831-9"
         x="127.10932"
         y="1039.8103"
         style="font-size:3px">Repositorio</tspan><tspan
         sodipodi:role="line"
         x="127.10932"
         y="1043.5603"
         id="tspan3833-2"
         style="font-size:3px">de Juan</tspan></text>
    <rect
       style="fill:#d38d5f;fill-opacity:1;stroke:#000000;stroke-width:0;stroke-linecap:round;stroke-linejoin:round;stroke-miterlimit:4;stroke-opacity:1;stroke-dasharray:none"
       id="rect4120"
       width="9.6232424"
       height="11.846525"
       x="89.967468"
       y="1021.9949" />
    <rect
       style="fill:#d38d5f;fill-opacity:1;stroke:#000000;stroke-width:0;stroke-linecap:round;stroke-linejoin:round;stroke-miterlimit:4;stroke-opacity:1;stroke-dasharray:none"
       id="rect4212"
       width="5.7286434"
       height="8.2412062"
       x="792.16278"
       y="651.93121"
       transform="matrix(0.7007535,0.71340349,-0.71340349,0.7007535,0,0)" />
    <rect
       style="fill:#d38d5f;fill-opacity:1;stroke:#000000;stroke-width:0;stroke-linecap:round;stroke-linejoin:round;stroke-miterlimit:4;stroke-opacity:1;stroke-dasharray:none"
       id="rect4212-7"
       width="5.7286434"
       height="8.2412062"
       x="-715.16144"
       y="742.35883"
       transform="matrix(0.65259047,-0.75771082,0.75771082,0.65259047,0,0)" />
    <path
       sodipodi:type="arc"
       style="fill:#ffe6d5;fill-opacity:1;stroke-width:6.30000019;stroke-linecap:round;stroke-linejoin:round;stroke-miterlimit:4;stroke-dasharray:none"
       id="path3047-8"
       sodipodi:cx="180.26315"
       sodipodi:cy="795.78326"
       sodipodi:rx="25"
       sodipodi:ry="31.578947"
       d="m 205.26315,795.78326 c 0,17.44058 -11.19288,31.57895 -25,31.57895 -13.80712,0 -25,-14.13837 -25,-31.57895 0,-17.44057 11.19288,-31.57894 25,-31.57894 13.80712,0 25,14.13837 25,31.57894 z"
       transform="matrix(0.17848428,0,0,0.14653103,62.60495,901.08714)" />
    <path
       transform="translate(-25.14593,942.23585)"
       sodipodi:type="arc"
       style="fill:#241f1c;fill-opacity:1;stroke:#000000;stroke-width:0;stroke-linecap:round;stroke-linejoin:round;stroke-miterlimit:4;stroke-opacity:1;stroke-dasharray:none"
       id="path4025-61"
       sodipodi:cx="119.74874"
       sodipodi:cy="84.272156"
       sodipodi:rx="0.35175881"
       sodipodi:ry="0.65326631"
       d="m 120.1005,84.272156 c 0,0.360789 -0.15749,0.653266 -0.35176,0.653266 -0.19427,0 -0.35176,-0.292477 -0.35176,-0.653266 0,-0.360789 0.15749,-0.653267 0.35176,-0.653267 0.19427,0 0.35176,0.292478 0.35176,0.653267 z" />
    <path
       transform="translate(-25.308607,946.97306)"
       sodipodi:type="arc"
       style="fill:#241f1c;fill-opacity:1;stroke:#000000;stroke-width:0;stroke-linecap:round;stroke-linejoin:round;stroke-miterlimit:4;stroke-opacity:1;stroke-dasharray:none"
       id="path4025-61-0"
       sodipodi:cx="119.74874"
       sodipodi:cy="84.272156"
       sodipodi:rx="0.35175881"
       sodipodi:ry="0.65326631"
       d="m 120.1005,84.272156 c 0,0.360789 -0.15749,0.653266 -0.35176,0.653266 -0.19427,0 -0.35176,-0.292477 -0.35176,-0.653266 0,-0.360789 0.15749,-0.653267 0.35176,-0.653267 0.19427,0 0.35176,0.292478 0.35176,0.653267 z" />
    <path
       transform="translate(-25.227268,944.73095)"
       sodipodi:type="arc"
       style="fill:#241f1c;fill-opacity:1;stroke:#000000;stroke-width:0;stroke-linecap:round;stroke-linejoin:round;stroke-miterlimit:4;stroke-opacity:1;stroke-dasharray:none"
       id="path4025-61-2"
       sodipodi:cx="119.74874"
       sodipodi:cy="84.272156"
       sodipodi:rx="0.35175881"
       sodipodi:ry="0.65326631"
       d="m 120.1005,84.272156 c 0,0.360789 -0.15749,0.653266 -0.35176,0.653266 -0.19427,0 -0.35176,-0.292477 -0.35176,-0.653266 0,-0.360789 0.15749,-0.653267 0.35176,-0.653267 0.19427,0 0.35176,0.292478 0.35176,0.653267 z" />
    <rect
       style="fill:#008066;fill-opacity:1;stroke:#000000;stroke-width:0;stroke-linecap:round;stroke-linejoin:round;stroke-miterlimit:4;stroke-opacity:1;stroke-dasharray:none"
       id="rect4120-3"
       width="9.6232424"
       height="11.846525"
       x="43.841251"
       y="1021.2898" />
    <rect
       style="fill:#008066;fill-opacity:1;stroke:#000000;stroke-width:0;stroke-linecap:round;stroke-linejoin:round;stroke-miterlimit:4;stroke-opacity:1;stroke-dasharray:none"
       id="rect4212-75"
       width="5.7286434"
       height="8.2412062"
       x="759.27673"
       y="684.44354"
       transform="matrix(0.7007535,0.71340349,-0.71340349,0.7007535,0,0)" />
    <rect
       style="fill:#008066;fill-opacity:1;stroke:#000000;stroke-width:0;stroke-linecap:round;stroke-linejoin:round;stroke-miterlimit:4;stroke-opacity:1;stroke-dasharray:none"
       id="rect4212-7-2"
       width="5.7286434"
       height="8.2412062"
       x="-744.65619"
       y="706.96338"
       transform="matrix(0.65259047,-0.75771082,0.75771082,0.65259047,0,0)" />
    <path
       sodipodi:type="arc"
       style="fill:#ffe6d5;fill-opacity:1;stroke-width:6.30000019;stroke-linecap:round;stroke-linejoin:round;stroke-miterlimit:4;stroke-dasharray:none"
       id="path3047-8-8"
       sodipodi:cx="180.26315"
       sodipodi:cy="795.78326"
       sodipodi:rx="25"
       sodipodi:ry="31.578947"
       d="m 205.26315,795.78326 c 0,17.44058 -11.19288,31.57895 -25,31.57895 -13.80712,0 -25,-14.13837 -25,-31.57895 0,-17.44057 11.19288,-31.57894 25,-31.57894 13.80712,0 25,14.13837 25,31.57894 z"
       transform="matrix(0.17848428,0,0,0.14653103,16.243698,901.43969)" />
    <path
       transform="translate(-71.448424,941.88329)"
       sodipodi:type="arc"
       style="fill:#dee3db;fill-opacity:1;stroke:#000000;stroke-width:0;stroke-linecap:round;stroke-linejoin:round;stroke-miterlimit:4;stroke-opacity:1;stroke-dasharray:none"
       id="path4025-61-9"
       sodipodi:cx="119.74874"
       sodipodi:cy="84.272156"
       sodipodi:rx="0.35175881"
       sodipodi:ry="0.65326631"
       d="m 120.1005,84.272156 c 0,0.360789 -0.15749,0.653266 -0.35176,0.653266 -0.19427,0 -0.35176,-0.292477 -0.35176,-0.653266 0,-0.360789 0.15749,-0.653267 0.35176,-0.653267 0.19427,0 0.35176,0.292478 0.35176,0.653267 z" />
    <path
       transform="translate(-71.457401,944.28781)"
       sodipodi:type="arc"
       style="fill:#d5ffd5;fill-opacity:1;stroke:#000000;stroke-width:0;stroke-linecap:round;stroke-linejoin:round;stroke-miterlimit:4;stroke-opacity:1;stroke-dasharray:none"
       id="path4025-61-7"
       sodipodi:cx="119.74874"
       sodipodi:cy="84.272156"
       sodipodi:rx="0.35175881"
       sodipodi:ry="0.65326631"
       d="m 120.1005,84.272156 c 0,0.360789 -0.15749,0.653266 -0.35176,0.653266 -0.19427,0 -0.35176,-0.292477 -0.35176,-0.653266 0,-0.360789 0.15749,-0.653267 0.35176,-0.653267 0.19427,0 0.35176,0.292478 0.35176,0.653267 z" />
    <path
       style="fill:none;stroke:#0095a6;stroke-width:1px;stroke-linecap:butt;stroke-linejoin:miter;stroke-opacity:1;marker-end:url(#Arrow2Mend)"
       d="M 60.99865,80.96263 79.014845,80.89515"
       id="path4853"
       inkscape:path-effect="#path-effect4855"
       inkscape:original-d="m 60.99865,80.96263 18.016195,-0.06748"
       inkscape:connector-curvature="0"
       transform="translate(0,942.51966)"
       sodipodi:nodetypes="cc" />
    <path
       style="fill:none;stroke:#0095a6;stroke-width:1px;stroke-linecap:butt;stroke-linejoin:miter;stroke-opacity:1;marker-end:url(#Arrow2Mend)"
       d="M 56.019443,1009.4636 70.213815,998.36818"
       id="path4853-2"
       inkscape:path-effect="#path-effect4855-1"
       inkscape:original-d="M 56.019443,1009.4636 70.213815,998.36818"
       inkscape:connector-curvature="0"
       sodipodi:nodetypes="cc" />
  </g>
</svg>
