<?xml version="1.0" encoding="UTF-8" standalone="no"?>
<!-- Created with Inkscape (http://www.inkscape.org/) -->

<svg
   xmlns:dc="http://purl.org/dc/elements/1.1/"
   xmlns:cc="http://creativecommons.org/ns#"
   xmlns:rdf="http://www.w3.org/1999/02/22-rdf-syntax-ns#"
   xmlns:svg="http://www.w3.org/2000/svg"
   xmlns="http://www.w3.org/2000/svg"
   xmlns:sodipodi="http://sodipodi.sourceforge.net/DTD/sodipodi-0.dtd"
   xmlns:inkscape="http://www.inkscape.org/namespaces/inkscape"
   width="155.90552"
   height="109.84252"
   id="svg2"
   version="1.1"
   inkscape:version="0.48.4 r9939"
   sodipodi:docname="sincronizar.svg">
  <defs
     id="defs4">
    <inkscape:path-effect
       effect="spiro"
       id="path-effect3036"
       is_visible="true" />
    <inkscape:path-effect
       effect="spiro"
       id="path-effect4552"
       is_visible="true" />
    <inkscape:path-effect
       effect="spiro"
       id="path-effect4069"
       is_visible="true" />
    <inkscape:path-effect
       effect="spiro"
       id="path-effect4065"
       is_visible="true" />
    <inkscape:path-effect
       effect="spiro"
       id="path-effect3791"
       is_visible="true" />
    <inkscape:path-effect
       effect="spiro"
       id="path-effect3787"
       is_visible="true" />
    <inkscape:path-effect
       effect="spiro"
       id="path-effect3781"
       is_visible="true" />
    <inkscape:path-effect
       effect="spiro"
       id="path-effect3791-6"
       is_visible="true" />
    <inkscape:path-effect
       effect="spiro"
       id="path-effect3791-5"
       is_visible="true" />
    <inkscape:path-effect
       effect="spiro"
       id="path-effect3036-3"
       is_visible="true" />
    <inkscape:path-effect
       effect="spiro"
       id="path-effect3791-5-1"
       is_visible="true" />
  </defs>
  <sodipodi:namedview
     id="base"
     pagecolor="#ffffff"
     bordercolor="#666666"
     borderopacity="1.0"
     inkscape:pageopacity="0.0"
     inkscape:pageshadow="2"
     inkscape:zoom="6.88"
     inkscape:cx="54.24128"
     inkscape:cy="43.87429"
     inkscape:document-units="px"
     inkscape:current-layer="layer1"
     showgrid="false"
     inkscape:window-width="1366"
     inkscape:window-height="713"
     inkscape:window-x="0"
     inkscape:window-y="30"
     inkscape:window-maximized="1" />
  <metadata
     id="metadata7">
    <rdf:RDF>
      <cc:Work
         rdf:about="">
        <dc:format>image/svg+xml</dc:format>
        <dc:type
           rdf:resource="http://purl.org/dc/dcmitype/StillImage" />
        <dc:title />
      </cc:Work>
    </rdf:RDF>
  </metadata>
  <g
     inkscape:label="Capa 1"
     inkscape:groupmode="layer"
     id="layer1"
     transform="translate(0,-942.51967)">
    <rect
       style="fill:#e3dedb;fill-opacity:1;stroke:#283a37;stroke-width:0.36040905000000001;stroke-linecap:round;stroke-linejoin:round;stroke-miterlimit:4;stroke-opacity:1;stroke-dasharray:none"
       id="rect2985"
       width="67.556534"
       height="39.186382"
       x="28.899055"
       y="971.20691" />
    <rect
       style="fill:#e3dedb;fill-opacity:1;stroke:#3a3d3a;stroke-width:0.42396446999999998;stroke-linecap:round;stroke-linejoin:round;stroke-miterlimit:4;stroke-opacity:1;stroke-dasharray:none"
       id="rect2987"
       width="67.782104"
       height="18.592178"
       x="28.982985"
       y="1015.163" />
    <rect
       style="fill:#ffffff;fill-opacity:1;stroke:#566967;stroke-width:0.35768687999999998;stroke-linecap:round;stroke-linejoin:round;stroke-miterlimit:4;stroke-opacity:1;stroke-dasharray:none"
       id="rect2989"
       width="60.587666"
       height="31.909369"
       x="32.394203"
       y="974.98016" />
    <path
       sodipodi:type="arc"
       style="fill:#e3dedb;fill-opacity:1;stroke:#00beaf;stroke-width:0.30000001;stroke-linecap:round;stroke-linejoin:round;stroke-miterlimit:4;stroke-opacity:1;stroke-dasharray:none"
       id="path3759"
       sodipodi:cx="128.58333"
       sodipodi:cy="13.925855"
       sodipodi:rx="10.25"
       sodipodi:ry="1.5833334"
       d="m 138.83333,13.925855 a 10.25,1.5833334 0 1 1 -20.5,0 10.25,1.5833334 0 1 1 20.5,0 z"
       transform="matrix(1.3174977,0,0,0.98672016,-44.235975,940.26227)" />
    <path
       style="fill:none;stroke:#00beaa;stroke-width:0.41396669;stroke-linecap:butt;stroke-linejoin:miter;stroke-miterlimit:4;stroke-opacity:1;stroke-dasharray:none"
       d="m 111.43694,953.97823 -0.0946,22.41607 26.96671,0.40418 0.35052,-22.68701"
       id="path3779"
       inkscape:path-effect="#path-effect3781"
       inkscape:original-d="m 111.43694,953.97823 -0.0946,22.41607 26.96671,0.40418 0.35052,-22.68701"
       inkscape:connector-curvature="0"
       sodipodi:nodetypes="cccc" />
    <path
       style="fill:none;stroke:#00beaa;stroke-width:0.33721855;stroke-linecap:butt;stroke-linejoin:miter;stroke-miterlimit:4;stroke-opacity:1;stroke-dasharray:none"
       d="m 111.68378,958.83693 1.8372,0.34477 c 0.71822,0.0507 1.43806,0.0787 2.15805,0.0838 0.78903,0.006 1.57798,-0.0162 2.36702,-0.0202 0.68555,-0.003 1.37109,0.006 2.05662,0.0137 1.11412,0.0117 2.22831,0.0161 3.34248,0.0222 1.02815,0.006 2.0563,0.0128 3.08444,0.0205 1.57705,0.0118 3.15409,0.0246 4.73117,0.0315 0.54828,0.002 1.09657,0.004 1.64481,0.0109 0.59169,0.007 1.1834,0.0208 1.7751,0.0147 0.66057,-0.007 1.3209,-0.0379 1.97919,-0.0932 l 1.84902,-0.45404"
       id="path3789"
       inkscape:path-effect="#path-effect3791"
       inkscape:original-d="m 111.68378,958.83693 1.8372,0.34477 2.15805,0.0838 2.36702,-0.0202 2.05662,0.0137 3.34248,0.0222 3.08444,0.0205 4.73117,0.0315 1.64481,0.0109 1.7751,0.0147 1.97919,-0.0932 1.84902,-0.45404"
       inkscape:connector-curvature="0"
       sodipodi:nodetypes="cccccccccccc" />
    <path
       style="fill:none;stroke:#00beaa;stroke-width:0.33781964;stroke-linecap:butt;stroke-linejoin:miter;stroke-miterlimit:4;stroke-opacity:1;stroke-dasharray:none"
       d="m 111.42667,963.53429 1.84579,0.3444 c 0.7216,0.0507 1.44479,0.0786 2.16814,0.0837 0.79272,0.006 1.58536,-0.0161 2.37809,-0.0201 0.68876,-0.003 1.37751,0.007 2.06624,0.0137 1.11933,0.0117 2.23872,0.016 3.35809,0.0221 1.03296,0.006 2.06592,0.0128 3.09887,0.0205 1.58442,0.0118 3.16884,0.0246 4.75329,0.0315 0.55084,0.002 1.1017,0.004 1.6525,0.0109 0.59446,0.007 1.18894,0.0208 1.78341,0.0147 0.66365,-0.007 1.32705,-0.0378 1.98844,-0.093 l 1.85766,-0.45353"
       id="path3789-7"
       inkscape:path-effect="#path-effect3791-6"
       inkscape:original-d="m 111.42667,963.53429 1.84579,0.3444 2.16814,0.0837 2.37809,-0.0201 2.06624,0.0137 3.35809,0.0221 3.09887,0.0205 4.75329,0.0315 1.6525,0.0109 1.78341,0.0147 1.98844,-0.093 1.85766,-0.45353"
       inkscape:connector-curvature="0"
       sodipodi:nodetypes="cccccccccccc" />
    <path
       style="fill:none;stroke:#00beaa;stroke-width:0.33846533;stroke-linecap:butt;stroke-linejoin:miter;stroke-miterlimit:4;stroke-opacity:1;stroke-dasharray:none"
       d="m 111.34272,967.89576 1.85505,0.34398 c 0.72522,0.0506 1.45203,0.0785 2.179,0.0836 0.79669,0.006 1.59331,-0.0161 2.39001,-0.0201 0.69221,-0.003 1.3844,0.006 2.07658,0.0136 1.12494,0.0116 2.24994,0.016 3.37493,0.0221 1.03814,0.006 2.07627,0.0129 3.1144,0.0205 1.59236,0.0117 3.18471,0.0245 4.7771,0.0314 0.5536,0.002 1.10722,0.004 1.66078,0.0109 0.59743,0.007 1.19488,0.0207 1.79233,0.0146 0.66697,-0.007 1.33369,-0.0378 1.99841,-0.0929 l 1.86697,-0.45301"
       id="path3789-3"
       inkscape:path-effect="#path-effect3791-5"
       inkscape:original-d="m 111.34272,967.89576 1.85505,0.34398 2.179,0.0836 2.39001,-0.0201 2.07658,0.0136 3.37493,0.0221 3.1144,0.0205 4.7771,0.0314 1.66078,0.0109 1.79233,0.0146 1.99841,-0.0929 1.86697,-0.45301"
       inkscape:connector-curvature="0"
       sodipodi:nodetypes="cccccccccccc" />
    <rect
       style="fill:#e3dedb;fill-opacity:1;stroke:#dc7b17;stroke-width:0.08145863;stroke-linecap:round;stroke-linejoin:round;stroke-miterlimit:4;stroke-opacity:0.40609137;stroke-dasharray:none"
       id="rect3867"
       width="3.2011499"
       height="2.207664"
       x="37.922764"
       y="1019.7787" />
    <rect
       style="fill:#e3dedb;fill-opacity:1;stroke:#dc7b17;stroke-width:0.08145863;stroke-linecap:round;stroke-linejoin:round;stroke-miterlimit:4;stroke-opacity:0.40609137;stroke-dasharray:none"
       id="rect3867-2"
       width="3.2011499"
       height="2.207664"
       x="37.922764"
       y="1023.6516" />
    <rect
       style="fill:#e3dedb;fill-opacity:1;stroke:#dc7b17;stroke-width:0.08145863;stroke-linecap:round;stroke-linejoin:round;stroke-miterlimit:4;stroke-opacity:0.40609137;stroke-dasharray:none"
       id="rect3867-5"
       width="3.2011499"
       height="2.207664"
       x="42.192871"
       y="1019.6794" />
    <rect
       style="fill:#e3dedb;fill-opacity:1;stroke:#dc7b17;stroke-width:0.08145863;stroke-linecap:round;stroke-linejoin:round;stroke-miterlimit:4;stroke-opacity:0.40609137;stroke-dasharray:none"
       id="rect3867-1"
       width="3.2011499"
       height="2.207664"
       x="42.192871"
       y="1023.6516" />
    <rect
       style="fill:#e3dedb;fill-opacity:1;stroke:#dc7b17;stroke-width:0.08145863;stroke-linecap:round;stroke-linejoin:round;stroke-miterlimit:4;stroke-opacity:0.40609137;stroke-dasharray:none"
       id="rect3867-9"
       width="3.2011499"
       height="2.207664"
       x="46.094402"
       y="1019.7598" />
    <rect
       style="fill:#e3dedb;fill-opacity:1;stroke:#dc7b17;stroke-width:0.08145863;stroke-linecap:round;stroke-linejoin:round;stroke-miterlimit:4;stroke-opacity:0.40609137;stroke-dasharray:none"
       id="rect3867-7"
       width="3.2011499"
       height="2.207664"
       x="50.019302"
       y="1019.7599" />
    <rect
       style="fill:#e3dedb;fill-opacity:1;stroke:#dc7b17;stroke-width:0.08145863;stroke-linecap:round;stroke-linejoin:round;stroke-miterlimit:4;stroke-opacity:0.40609137;stroke-dasharray:none"
       id="rect3867-13"
       width="3.2011499"
       height="2.207664"
       x="46.193768"
       y="1023.5854" />
    <rect
       style="fill:#e3dedb;fill-opacity:1;stroke:#dc7b17;stroke-width:0.08145863;stroke-linecap:round;stroke-linejoin:round;stroke-miterlimit:4;stroke-opacity:0.40609137;stroke-dasharray:none"
       id="rect3867-12"
       width="3.2011499"
       height="2.207664"
       x="50.068981"
       y="1023.5853" />
    <rect
       style="fill:#e3dedb;fill-opacity:1;stroke:#dc7b17;stroke-width:0.08145863;stroke-linecap:round;stroke-linejoin:round;stroke-miterlimit:4;stroke-opacity:0.40609137;stroke-dasharray:none"
       id="rect3867-0"
       width="3.2011499"
       height="2.207664"
       x="53.993881"
       y="1023.486" />
    <rect
       style="fill:#e3dedb;fill-opacity:1;stroke:#dc7b17;stroke-width:0.08145863;stroke-linecap:round;stroke-linejoin:round;stroke-miterlimit:4;stroke-opacity:0.40609137;stroke-dasharray:none"
       id="rect3867-6"
       width="3.2011499"
       height="2.207664"
       x="53.944199"
       y="1019.7101" />
    <rect
       style="fill:#e3dedb;fill-opacity:1;stroke:#dc7b17;stroke-width:0.08145863;stroke-linecap:round;stroke-linejoin:round;stroke-miterlimit:4;stroke-opacity:0.40609137;stroke-dasharray:none"
       id="rect3867-8"
       width="3.2011499"
       height="2.207664"
       x="57.869099"
       y="1019.6603" />
    <rect
       style="fill:#e3dedb;fill-opacity:1;stroke:#dc7b17;stroke-width:0.08145863;stroke-linecap:round;stroke-linejoin:round;stroke-miterlimit:4;stroke-opacity:0.40609137;stroke-dasharray:none"
       id="rect3867-74"
       width="3.2011499"
       height="2.207664"
       x="57.918785"
       y="1023.3867" />
    <rect
       style="fill:#e3dedb;fill-opacity:1;stroke:#dc7b17;stroke-width:0.08145863;stroke-linecap:round;stroke-linejoin:round;stroke-miterlimit:4;stroke-opacity:0.40609137;stroke-dasharray:none"
       id="rect3867-92"
       width="3.2011499"
       height="2.207664"
       x="61.89336"
       y="1023.2872" />
    <rect
       style="fill:#e3dedb;fill-opacity:1;stroke:#dc7b17;stroke-width:0.08145863;stroke-linecap:round;stroke-linejoin:round;stroke-miterlimit:4;stroke-opacity:0.40609137;stroke-dasharray:none"
       id="rect3867-4"
       width="3.2011499"
       height="2.207664"
       x="61.793995"
       y="1019.6107" />
    <rect
       style="fill:#e3dedb;fill-opacity:1;stroke:#dc7b17;stroke-width:0.08145863;stroke-linecap:round;stroke-linejoin:round;stroke-miterlimit:4;stroke-opacity:0.40609137;stroke-dasharray:none"
       id="rect3867-45"
       width="3.2011499"
       height="2.207664"
       x="65.81826"
       y="1023.2873" />
    <rect
       style="fill:#e3dedb;fill-opacity:1;stroke:#dc7b17;stroke-width:0.08145863;stroke-linecap:round;stroke-linejoin:round;stroke-miterlimit:4;stroke-opacity:0.40609137;stroke-dasharray:none"
       id="rect3867-91"
       width="3.2011499"
       height="2.207664"
       x="65.768578"
       y="1019.5114" />
    <rect
       style="fill:#e3dedb;fill-opacity:1;stroke:#dc7b17;stroke-width:0.08145863;stroke-linecap:round;stroke-linejoin:round;stroke-miterlimit:4;stroke-opacity:0.40609137;stroke-dasharray:none"
       id="rect3867-28"
       width="3.2011499"
       height="2.207664"
       x="69.792839"
       y="1023.2376" />
    <rect
       style="fill:#e3dedb;fill-opacity:1;stroke:#dc7b17;stroke-width:0.08145863;stroke-linecap:round;stroke-linejoin:round;stroke-miterlimit:4;stroke-opacity:0.40609137;stroke-dasharray:none"
       id="rect3867-96"
       width="3.2011499"
       height="2.207664"
       x="69.743156"
       y="1019.4617" />
    <rect
       style="fill:#e3dedb;fill-opacity:1;stroke:#dc7b17;stroke-width:0.08145863;stroke-linecap:round;stroke-linejoin:round;stroke-miterlimit:4;stroke-opacity:0.40609137;stroke-dasharray:none"
       id="rect3867-06"
       width="3.2011499"
       height="2.207664"
       x="73.866791"
       y="1023.0388" />
    <rect
       style="fill:#e3dedb;fill-opacity:1;stroke:#dc7b17;stroke-width:0.08145863;stroke-linecap:round;stroke-linejoin:round;stroke-miterlimit:4;stroke-opacity:0.40609137;stroke-dasharray:none"
       id="rect3867-40"
       width="3.2011499"
       height="2.207664"
       x="73.767426"
       y="1019.412" />
    <rect
       style="fill:#e3dedb;fill-opacity:1;stroke:#dc7b17;stroke-width:0.08145863;stroke-linecap:round;stroke-linejoin:round;stroke-miterlimit:4;stroke-opacity:0.40609137;stroke-dasharray:none"
       id="rect3867-94"
       width="3.2011499"
       height="2.207664"
       x="84.567162"
       y="1022.7664" />
    <rect
       style="fill:#e3dedb;fill-opacity:1;stroke:#dc7b17;stroke-width:0.08145863;stroke-linecap:round;stroke-linejoin:round;stroke-miterlimit:4;stroke-opacity:0.40609137;stroke-dasharray:none"
       id="rect3867-54"
       width="3.2011499"
       height="2.207664"
       x="84.567162"
       y="1019.0899" />
    <path
       style="fill:none;stroke:#cb0d29;stroke-width:1.19519424px;stroke-linecap:butt;stroke-linejoin:miter;stroke-opacity:1"
       d="m 68.685073,992.36975 -0.59296,3.4748 3.12256,0.85486"
       id="path3034"
       inkscape:path-effect="#path-effect3036"
       inkscape:original-d="m 68.685073,992.36975 -0.59296,3.4748 3.12256,0.85486"
       inkscape:connector-curvature="0" />
    <path
       style="fill:none;stroke:#cb0d29;stroke-width:1.30969083px;stroke-linecap:butt;stroke-linejoin:miter;stroke-opacity:1"
       d="m 59.085979,983.72272 1.288795,-3.16952 -3.732423,-1.40238"
       id="path3034-6"
       inkscape:path-effect="#path-effect3036-3"
       inkscape:original-d="m 59.085979,983.72272 1.288795,-3.16952 -3.732423,-1.40238"
       inkscape:connector-curvature="0" />
    <path
       sodipodi:type="arc"
       style="fill:#ac9d93;fill-opacity:1;stroke:none"
       id="path3040"
       sodipodi:cx="118.99593"
       sodipodi:cy="47.088112"
       sodipodi:rx="2.4423337"
       sodipodi:ry="2.7815468"
       d="m 121.43827,47.088112 a 2.4423337,2.7815468 0 1 1 -4.88467,0 2.4423337,2.7815468 0 1 1 4.88467,0 z"
       transform="matrix(1.1177693,0,0,1,-14.472503,945.41699)" />
    <path
       sodipodi:type="arc"
       style="fill:#ac9d93;fill-opacity:1;stroke:none"
       id="path3038-3"
       sodipodi:cx="95.590233"
       sodipodi:cy="47.223797"
       sodipodi:rx="1.017639"
       sodipodi:ry="1.017639"
       d="m 96.607872,47.223797 a 1.017639,1.017639 0 1 1 -2.035278,0 1.017639,1.017639 0 1 1 2.035278,0 z"
       transform="translate(4.4001037,954.14857)" />
    <path
       sodipodi:type="arc"
       style="fill:#ac9d93;fill-opacity:1;stroke:none"
       id="path3038-6"
       sodipodi:cx="95.590233"
       sodipodi:cy="47.223797"
       sodipodi:rx="1.017639"
       sodipodi:ry="1.017639"
       d="m 96.607872,47.223797 a 1.017639,1.017639 0 1 1 -2.035278,0 1.017639,1.017639 0 1 1 2.035278,0 z"
       transform="translate(8.8583881,953.5575)" />
    <path
       sodipodi:type="arc"
       style="fill:#ac9d93;fill-opacity:1;stroke:none"
       id="path3038-7"
       sodipodi:cx="95.590233"
       sodipodi:cy="47.223797"
       sodipodi:rx="1.017639"
       sodipodi:ry="1.017639"
       d="m 96.607872,47.223797 a 1.017639,1.017639 0 1 1 -2.035278,0 1.017639,1.017639 0 1 1 2.035278,0 z"
       transform="translate(28.018994,940.1158)" />
    <path
       sodipodi:type="arc"
       style="fill:#ac9d93;fill-opacity:1;stroke:none"
       id="path3038-5"
       sodipodi:cx="95.590233"
       sodipodi:cy="47.223797"
       sodipodi:rx="1.017639"
       sodipodi:ry="1.017639"
       d="m 96.607872,47.223797 a 1.017639,1.017639 0 1 1 -2.035278,0 1.017639,1.017639 0 1 1 2.035278,0 z"
       transform="translate(30.597013,935.66757)" />
    <path
       sodipodi:type="arc"
       style="fill:#ac9d93;fill-opacity:1;stroke:none"
       id="path3038-3-1"
       sodipodi:cx="95.590233"
       sodipodi:cy="47.223797"
       sodipodi:rx="1.017639"
       sodipodi:ry="1.017639"
       d="m 96.607872,47.223797 a 1.017639,1.017639 0 1 1 -2.035278,0 1.017639,1.017639 0 1 1 2.035278,0 z"
       transform="translate(12.754605,952.133)" />
    <path
       sodipodi:type="arc"
       style="fill:#ac9d93;fill-opacity:1;stroke:none"
       id="path3038-3-2"
       sodipodi:cx="95.590233"
       sodipodi:cy="47.223797"
       sodipodi:rx="1.017639"
       sodipodi:ry="1.017639"
       d="m 96.607872,47.223797 a 1.017639,1.017639 0 1 1 -2.035278,0 1.017639,1.017639 0 1 1 2.035278,0 z"
       transform="translate(17.542241,949.47768)" />
    <path
       sodipodi:type="arc"
       style="fill:#ac9d93;fill-opacity:1;stroke:none"
       id="path3038-3-7"
       sodipodi:cx="95.590233"
       sodipodi:cy="47.223797"
       sodipodi:rx="1.017639"
       sodipodi:ry="1.017639"
       d="m 96.607872,47.223797 a 1.017639,1.017639 0 1 1 -2.035278,0 1.017639,1.017639 0 1 1 2.035278,0 z"
       transform="translate(32.341593,931.82972)" />
    <path
       style="fill:none;stroke:#00beaa;stroke-width:0.33638272;stroke-linecap:butt;stroke-linejoin:miter;stroke-miterlimit:4;stroke-opacity:1;stroke-dasharray:none"
       d="m 111.63101,972.33075 1.82533,0.34529 c 0.71356,0.0508 1.42875,0.0788 2.1441,0.0839 0.78392,0.006 1.56777,-0.0162 2.3517,-0.0202 0.68112,-0.004 1.36223,0.006 2.04332,0.0136 1.10691,0.0117 2.21389,0.016 3.32085,0.0222 1.02151,0.006 2.04301,0.0129 3.0645,0.0206 1.56685,0.0118 3.13369,0.0245 4.70057,0.0315 0.54473,0.002 1.08948,0.004 1.63417,0.011 0.58786,0.007 1.17574,0.0208 1.76361,0.0147 0.65632,-0.007 1.31238,-0.0379 1.9664,-0.0933 l 1.83705,-0.45473"
       id="path3789-3-0"
       inkscape:path-effect="#path-effect3791-5-1"
       inkscape:original-d="m 111.63101,972.33075 1.82533,0.34529 2.1441,0.0839 2.3517,-0.0202 2.04332,0.0136 3.32085,0.0222 3.0645,0.0206 4.70057,0.0315 1.63417,0.011 1.76361,0.0147 1.9664,-0.0933 1.83705,-0.45473"
       inkscape:connector-curvature="0"
       sodipodi:nodetypes="cccccccccccc" />
  </g>
  <g
     inkscape:groupmode="layer"
     id="layer2"
     inkscape:label="Capa">
    <path
       style="fill:none;stroke:#000000;stroke-width:0;stroke-linecap:butt;stroke-linejoin:miter;stroke-opacity:0.83137256;stroke-miterlimit:4;stroke-dasharray:none"
       d="m 65.485415,40.354614 1.827952,0.642906 2.023647,1.794532 0.911202,1.44787 0.122949,2.77841 -0.542285,3.063636 -1.492671,2.185705 -1.509235,1.224155 -3.8686,0.212478 -1.307993,-0.452756 -1.235539,-0.626123"
       id="path4063"
       inkscape:path-effect="#path-effect4065"
       inkscape:original-d="m 65.485415,40.354614 c 5.034807,-1.226073 0.980084,0.473332 1.827952,0.642906 823.856463,273.29933 1.200003,1.285811 2.023647,1.794532 l 0.911202,1.44787 0.122949,2.77841 c -0.121124,-0.184103 -0.421161,2.385216 -0.542285,3.063636 l -1.492671,2.185705 -1.509235,1.224155 c -1.065892,-1.293478 -2.802708,0.260927 -3.8686,0.212478 L 61.650381,53.25155 60.414842,52.625427"
       inkscape:connector-curvature="0"
       sodipodi:nodetypes="ccccccccccc" />
    <path
       sodipodi:type="arc"
       style="fill:none;fill-opacity:1;stroke:#cb0d29;stroke-width:0.9511487;stroke-linecap:round;stroke-linejoin:round;stroke-miterlimit:4;stroke-opacity:1;stroke-dasharray:none"
       id="path4515"
       sodipodi:cx="66.578117"
       sodipodi:cy="50.107834"
       sodipodi:rx="7.4472671"
       sodipodi:ry="6.463244"
       d="m 74.025384,50.107834 a 7.4472671,6.463244 0 1 1 -14.894534,0 7.4472671,6.463244 0 1 1 14.894534,0 z"
       transform="matrix(1.2042042,0,0,1.3217993,-16.32396,-20.44095)" />
    <rect
       style="fill:#ffffff;fill-opacity:1;stroke:#ffffff;stroke-width:0.95846444;stroke-linecap:round;stroke-linejoin:round;stroke-miterlimit:4;stroke-opacity:1;stroke-dasharray:none"
       id="rect4519"
       width="3.8118136"
       height="3.1408887"
       x="61.183403"
       y="36.03582" />
    <rect
       style="fill:#ffffff;fill-opacity:1;stroke:#ffffff;stroke-width:1.14756846;stroke-linecap:round;stroke-linejoin:round;stroke-miterlimit:4;stroke-opacity:1;stroke-dasharray:none"
       id="rect4519-6"
       width="5.8143978"
       height="2.9517846"
       x="61.389774"
       y="52.456215" />
  </g>
</svg>
