<?xml version="1.0" encoding="UTF-8" standalone="no"?>
<!-- Created with Inkscape (http://www.inkscape.org/) -->

<svg
   xmlns:dc="http://purl.org/dc/elements/1.1/"
   xmlns:cc="http://creativecommons.org/ns#"
   xmlns:rdf="http://www.w3.org/1999/02/22-rdf-syntax-ns#"
   xmlns:svg="http://www.w3.org/2000/svg"
   xmlns="http://www.w3.org/2000/svg"
   xmlns:sodipodi="http://sodipodi.sourceforge.net/DTD/sodipodi-0.dtd"
   xmlns:inkscape="http://www.inkscape.org/namespaces/inkscape"
   width="155.90552"
   height="107.84"
   id="svg2994"
   version="1.1"
   inkscape:version="0.48.4 r9939"
   sodipodi:docname="mary_error.svg">
  <defs
     id="defs2996">
    <inkscape:path-effect
       effect="spiro"
       id="path-effect5225"
       is_visible="true" />
    <inkscape:path-effect
       effect="spiro"
       id="path-effect5221"
       is_visible="true" />
    <inkscape:path-effect
       effect="spiro"
       id="path-effect5217"
       is_visible="true" />
    <inkscape:path-effect
       effect="spiro"
       id="path-effect3041"
       is_visible="true" />
    <inkscape:path-effect
       effect="spiro"
       id="path-effect3808"
       is_visible="true" />
    <inkscape:path-effect
       effect="spiro"
       id="path-effect6941"
       is_visible="true" />
    <inkscape:path-effect
       effect="spiro"
       id="path-effect6937"
       is_visible="true" />
    <inkscape:path-effect
       effect="spiro"
       id="path-effect6933"
       is_visible="true" />
    <inkscape:path-effect
       effect="spiro"
       id="path-effect6908"
       is_visible="true" />
    <inkscape:path-effect
       effect="spiro"
       id="path-effect6896"
       is_visible="true" />
    <inkscape:path-effect
       effect="spiro"
       id="path-effect6892"
       is_visible="true" />
    <inkscape:path-effect
       effect="spiro"
       id="path-effect6833"
       is_visible="true" />
    <inkscape:path-effect
       effect="spiro"
       id="path-effect6829"
       is_visible="true" />
    <inkscape:path-effect
       effect="spiro"
       id="path-effect6825"
       is_visible="true" />
    <inkscape:path-effect
       effect="spiro"
       id="path-effect6788"
       is_visible="true" />
    <inkscape:path-effect
       effect="spiro"
       id="path-effect6762"
       is_visible="true" />
    <inkscape:path-effect
       effect="spiro"
       id="path-effect4340"
       is_visible="true" />
    <inkscape:perspective
       sodipodi:type="inkscape:persp3d"
       inkscape:vp_x="0 : 53.919998 : 1"
       inkscape:vp_y="0 : 1000 : 0"
       inkscape:vp_z="155.90552 : 53.919998 : 1"
       inkscape:persp3d-origin="77.952759 : 35.946665 : 1"
       id="perspective4322" />
    <inkscape:path-effect
       effect="spiro"
       id="path-effect4320"
       is_visible="true" />
    <inkscape:path-effect
       effect="spiro"
       id="path-effect4316"
       is_visible="true" />
    <inkscape:path-effect
       effect="spiro"
       id="path-effect4005"
       is_visible="true" />
    <inkscape:path-effect
       effect="spiro"
       id="path-effect6788-0"
       is_visible="true" />
    <inkscape:path-effect
       effect="spiro"
       id="path-effect6833-2"
       is_visible="true" />
    <inkscape:path-effect
       effect="spiro"
       id="path-effect6833-0"
       is_visible="true" />
    <inkscape:path-effect
       effect="spiro"
       id="path-effect6833-0-7"
       is_visible="true" />
    <inkscape:path-effect
       effect="spiro"
       id="path-effect6908-0"
       is_visible="true" />
    <inkscape:path-effect
       effect="spiro"
       id="path-effect6833-0-7-3"
       is_visible="true" />
    <inkscape:path-effect
       effect="spiro"
       id="path-effect3808-3"
       is_visible="true" />
    <inkscape:path-effect
       effect="spiro"
       id="path-effect3808-7"
       is_visible="true" />
    <inkscape:path-effect
       effect="spiro"
       id="path-effect3808-35"
       is_visible="true" />
  </defs>
  <sodipodi:namedview
     id="base"
     pagecolor="#ffffff"
     bordercolor="#666666"
     borderopacity="1.0"
     inkscape:pageopacity="0.0"
     inkscape:pageshadow="2"
     inkscape:zoom="7.5452852"
     inkscape:cx="72.000415"
     inkscape:cy="48.519587"
     inkscape:document-units="px"
     inkscape:current-layer="layer1"
     showgrid="false"
     height="108.84252px"
     inkscape:object-nodes="true"
     inkscape:snap-smooth-nodes="true"
     showguides="true"
     inkscape:window-width="1366"
     inkscape:window-height="713"
     inkscape:window-x="0"
     inkscape:window-y="30"
     inkscape:window-maximized="1"
     inkscape:guide-bbox="true" />
  <metadata
     id="metadata2999">
    <rdf:RDF>
      <cc:Work
         rdf:about="">
        <dc:format>image/svg+xml</dc:format>
        <dc:type
           rdf:resource="http://purl.org/dc/dcmitype/StillImage" />
        <dc:title></dc:title>
      </cc:Work>
    </rdf:RDF>
  </metadata>
  <g
     inkscape:label="Capa 1"
     inkscape:groupmode="layer"
     id="layer1"
     transform="translate(0,-944.52209)">
    <path
       style="fill:none;stroke:#231668;stroke-width:1.10259509000000011px;stroke-linecap:butt;stroke-linejoin:miter;stroke-opacity:1"
       d="m 74.945626,1012.8984 0.428741,-17.61595"
       id="path3039"
       inkscape:path-effect="#path-effect3041"
       inkscape:original-d="m 74.945626,1012.8984 c -1.505376,-4.8797 0.655273,-12.7501 0.428741,-17.61595"
       inkscape:connector-curvature="0"
       sodipodi:nodetypes="cc" />
    <path
       sodipodi:type="star"
       style="fill:#a02c2c;fill-opacity:1;stroke:#000000;stroke-width:0;stroke-linecap:round;stroke-linejoin:round;stroke-miterlimit:4;stroke-opacity:1;stroke-dasharray:none"
       id="path3006"
       sodipodi:sides="5"
       sodipodi:cx="131.57895"
       sodipodi:cy="716.83588"
       sodipodi:r1="38.741234"
       sodipodi:r2="33.846794"
       sodipodi:arg1="-0.89888504"
       sodipodi:arg2="-0.27056652"
       inkscape:flatsided="false"
       inkscape:rounded="0"
       inkscape:randomized="0"
       d="m 155.69471,686.51569 8.49967,21.2737 3.67295,22.61248 -17.60594,14.65761 -20.37074,10.48083 -19.38075,-12.2148 -16.262765,-16.13498 5.627983,-22.20677 10.319802,-20.45278 22.85904,-1.50974 z"
       inkscape:transform-center-y="4.5513642"
       transform="matrix(-0.29217851,0.01903867,-0.0188421,-0.29522684,85.737177,1239.9637)"
       inkscape:transform-center-x="-0.11248539" />
    <rect
       style="fill:#a02c2c;fill-opacity:1;stroke-width:6.30000019;stroke-linecap:round;stroke-linejoin:round;stroke-miterlimit:4;stroke-dasharray:none"
       id="rect3008"
       width="0.71068585"
       height="0.56522977"
       x="718.0011"
       y="741.17432"
       transform="matrix(0.74649155,0.6653949,-0.66642072,0.7455759,0,0)" />
    <rect
       style="fill:#a02c2c;fill-opacity:1;stroke-width:6.30000019;stroke-linecap:round;stroke-linejoin:round;stroke-miterlimit:4;stroke-dasharray:none"
       id="rect3008-3"
       width="10.747641"
       height="8.5547295"
       x="614.01917"
       y="-810.1806"
       transform="matrix(-0.76593358,0.64291971,-0.62135398,-0.78352998,0,0)"
       ry="0.83597934"
       rx="2.5731981" />
    <path
       sodipodi:type="arc"
       style="fill:#e9c6af;fill-opacity:1;stroke-width:6.30000019000000044;stroke-linecap:round;stroke-linejoin:round;stroke-miterlimit:4;stroke-dasharray:none"
       id="path3047"
       sodipodi:cx="180.26315"
       sodipodi:cy="795.78326"
       sodipodi:rx="25"
       sodipodi:ry="31.578947"
       d="m 205.26315,795.78326 c 0,17.44058 -11.19288,31.57895 -25,31.57895 -13.80712,0 -25,-14.13837 -25,-31.57895 0,-17.44057 11.19288,-31.57894 25,-31.57894 13.80712,0 25,14.13837 25,31.57894 z"
       transform="matrix(0.22784227,0,0,0.19490969,-6.6096315,861.67377)" />
    <path
       sodipodi:type="star"
       style="fill:#ac9d93;fill-opacity:1;stroke-width:6.30000019;stroke-linecap:round;stroke-linejoin:round;stroke-miterlimit:4;stroke-dasharray:none"
       id="path3006-6"
       sodipodi:sides="5"
       sodipodi:cx="131.57895"
       sodipodi:cy="716.83588"
       sodipodi:r1="41.655575"
       sodipodi:r2="33.846794"
       sodipodi:arg1="-0.95924869"
       sodipodi:arg2="-0.33093017"
       inkscape:flatsided="false"
       inkscape:rounded="0"
       inkscape:randomized="0"
       d="m 155.49488,682.72994 8.09435,23.10834 7.81682,23.20369 -19.47604,14.83905 -19.65249,14.60457 -20.13121,-13.9373 -19.962726,-14.17757 7.034275,-23.45277 7.314851,-23.36679 24.47862,-0.55732 z"
       inkscape:transform-center-y="4.313797"
       transform="matrix(-0.27941397,-0.00129532,0.00355152,-0.29575235,153.50502,1243.1096)"
       inkscape:transform-center-x="0.011923189" />
    <rect
       style="fill:#ac9d93;fill-opacity:1;stroke-width:6.30000019;stroke-linecap:round;stroke-linejoin:round;stroke-miterlimit:4;stroke-dasharray:none"
       id="rect3008-9"
       width="11.370974"
       height="9.0436764"
       x="777.52557"
       y="679.27185"
       transform="matrix(0.74649155,0.6653949,-0.66642072,0.7455759,0,0)"
       ry="1.9933541" />
    <path
       sodipodi:type="arc"
       style="fill:#e9c6af;fill-opacity:1;stroke-width:6.30000019000000044;stroke-linecap:round;stroke-linejoin:round;stroke-miterlimit:4;stroke-dasharray:none"
       id="path3047-1"
       sodipodi:cx="180.26315"
       sodipodi:cy="795.78326"
       sodipodi:rx="25"
       sodipodi:ry="31.578947"
       d="m 205.26315,795.78326 c 0,17.44058 -11.19288,31.57895 -25,31.57895 -13.80712,0 -25,-14.13837 -25,-31.57895 0,-17.44057 11.19288,-31.57894 25,-31.57894 13.80712,0 25,14.13837 25,31.57894 z"
       transform="matrix(0.22784227,0,0,0.19490969,78.524324,861.72507)" />
    <rect
       style="fill:#a02c2c;fill-opacity:1;stroke-width:6.30000019;stroke-linecap:round;stroke-linejoin:round;stroke-miterlimit:4;stroke-dasharray:none"
       id="rect3008-3-27"
       width="10.747641"
       height="8.5547295"
       x="-713.4353"
       y="-772.43439"
       transform="matrix(-0.77149277,-0.63623809,0.65746305,-0.75348679,0,0)"
       ry="1.1629274" />
    <rect
       style="fill:#ac9d93;fill-opacity:1;stroke-width:6.30000019;stroke-linecap:round;stroke-linejoin:round;stroke-miterlimit:4;stroke-dasharray:none"
       id="rect3008-3-0"
       width="10.747641"
       height="8.5547295"
       x="549.22687"
       y="-864.60156"
       transform="matrix(-0.76593358,0.64291971,-0.62135398,-0.78352998,0,0)"
       ry="1.3977326"
       rx="2.0687842" />
    <path
       sodipodi:type="arc"
       style="fill:#241f1c;fill-opacity:1;stroke:#000000;stroke-width:0;stroke-linecap:round;stroke-linejoin:round;stroke-miterlimit:4;stroke-opacity:1;stroke-dasharray:none"
       id="path4025"
       sodipodi:cx="119.74874"
       sodipodi:cy="84.272156"
       sodipodi:rx="0.35175881"
       sodipodi:ry="0.65326631"
       d="m 120.1005,84.272156 c 0,0.360789 -0.15749,0.653266 -0.35176,0.653266 -0.19427,0 -0.35176,-0.292477 -0.35176,-0.653266 0,-0.360789 0.15749,-0.653267 0.35176,-0.653267 0.19427,0 0.35176,0.292478 0.35176,0.653267 z"
       transform="translate(0,944.52209)" />
    <rect
       style="fill:#241f1c;fill-opacity:1;stroke:#000000;stroke-width:0;stroke-linecap:round;stroke-linejoin:round;stroke-miterlimit:4;stroke-opacity:1;stroke-dasharray:none"
       id="rect4027"
       width="2.7135677"
       height="2.914573"
       x="121.70854"
       y="83.116379"
       transform="translate(0,944.52209)" />
    <rect
       style="fill:#241f1c;fill-opacity:1;stroke:#000000;stroke-width:0;stroke-linecap:round;stroke-linejoin:round;stroke-miterlimit:4;stroke-opacity:1;stroke-dasharray:none"
       id="rect4027-9"
       width="2.7135677"
       height="2.914573"
       x="36.834171"
       y="1027.3872" />
    <path
       transform="translate(0.05025382,947.38641)"
       sodipodi:type="arc"
       style="fill:#241f1c;fill-opacity:1;stroke:#000000;stroke-width:0;stroke-linecap:round;stroke-linejoin:round;stroke-miterlimit:4;stroke-opacity:1;stroke-dasharray:none"
       id="path4025-3"
       sodipodi:cx="119.74874"
       sodipodi:cy="84.272156"
       sodipodi:rx="0.35175881"
       sodipodi:ry="0.65326631"
       d="m 120.1005,84.272156 c 0,0.360789 -0.15749,0.653266 -0.35176,0.653266 -0.19427,0 -0.35176,-0.292477 -0.35176,-0.653266 0,-0.360789 0.15749,-0.653267 0.35176,-0.653267 0.19427,0 0.35176,0.292478 0.35176,0.653267 z" />
    <path
       transform="translate(0.15075633,949.89897)"
       sodipodi:type="arc"
       style="fill:#241f1c;fill-opacity:1;stroke:#000000;stroke-width:0;stroke-linecap:round;stroke-linejoin:round;stroke-miterlimit:4;stroke-opacity:1;stroke-dasharray:none"
       id="path4025-6"
       sodipodi:cx="119.74874"
       sodipodi:cy="84.272156"
       sodipodi:rx="0.35175881"
       sodipodi:ry="0.65326631"
       d="m 120.1005,84.272156 c 0,0.360789 -0.15749,0.653266 -0.35176,0.653266 -0.19427,0 -0.35176,-0.292477 -0.35176,-0.653266 0,-0.360789 0.15749,-0.653267 0.35176,-0.653267 0.19427,0 0.35176,0.292478 0.35176,0.653267 z" />
    <path
       transform="translate(-85.477385,949.59747)"
       sodipodi:type="arc"
       style="fill:#241f1c;fill-opacity:1;stroke:#000000;stroke-width:0;stroke-linecap:round;stroke-linejoin:round;stroke-miterlimit:4;stroke-opacity:1;stroke-dasharray:none"
       id="path4025-0"
       sodipodi:cx="119.74874"
       sodipodi:cy="84.272156"
       sodipodi:rx="0.35175881"
       sodipodi:ry="0.65326631"
       d="m 120.1005,84.272156 c 0,0.360789 -0.15749,0.653266 -0.35176,0.653266 -0.19427,0 -0.35176,-0.292477 -0.35176,-0.653266 0,-0.360789 0.15749,-0.653267 0.35176,-0.653267 0.19427,0 0.35176,0.292478 0.35176,0.653267 z" />
    <path
       transform="translate(-85.477385,946.9844)"
       sodipodi:type="arc"
       style="fill:#241f1c;fill-opacity:1;stroke:#000000;stroke-width:0;stroke-linecap:round;stroke-linejoin:round;stroke-miterlimit:4;stroke-opacity:1;stroke-dasharray:none"
       id="path4025-62"
       sodipodi:cx="119.74874"
       sodipodi:cy="84.272156"
       sodipodi:rx="0.35175881"
       sodipodi:ry="0.65326631"
       d="m 120.1005,84.272156 c 0,0.360789 -0.15749,0.653266 -0.35176,0.653266 -0.19427,0 -0.35176,-0.292477 -0.35176,-0.653266 0,-0.360789 0.15749,-0.653267 0.35176,-0.653267 0.19427,0 0.35176,0.292478 0.35176,0.653267 z" />
    <path
       transform="translate(-85.477385,944.17033)"
       sodipodi:type="arc"
       style="fill:#241f1c;fill-opacity:1;stroke:#000000;stroke-width:0;stroke-linecap:round;stroke-linejoin:round;stroke-miterlimit:4;stroke-opacity:1;stroke-dasharray:none"
       id="path4025-61"
       sodipodi:cx="119.74874"
       sodipodi:cy="84.272156"
       sodipodi:rx="0.35175881"
       sodipodi:ry="0.65326631"
       d="m 120.1005,84.272156 c 0,0.360789 -0.15749,0.653266 -0.35176,0.653266 -0.19427,0 -0.35176,-0.292477 -0.35176,-0.653266 0,-0.360789 0.15749,-0.653267 0.35176,-0.653267 0.19427,0 0.35176,0.292478 0.35176,0.653267 z" />
    <rect
       style="fill:#d38d5f;fill-opacity:1;stroke:#000000;stroke-width:0;stroke-linecap:round;stroke-linejoin:round;stroke-miterlimit:4;stroke-opacity:1;stroke-dasharray:none"
       id="rect4120"
       width="13.266332"
       height="17.487438"
       x="66.934677"
       y="1024.2214"
       ry="4.3316479" />
    <path
       sodipodi:type="star"
       style="fill:#d38d5f;fill-opacity:1;stroke:#000000;stroke-width:0;stroke-linecap:round;stroke-linejoin:round;stroke-miterlimit:4;stroke-opacity:1;stroke-dasharray:none"
       id="path4122"
       sodipodi:sides="5"
       sodipodi:cx="71.256279"
       sodipodi:cy="76.784721"
       sodipodi:r1="6.7456579"
       sodipodi:r2="5.816483"
       sodipodi:arg1="2.1546667"
       sodipodi:arg2="2.7829853"
       inkscape:flatsided="false"
       inkscape:rounded="0"
       inkscape:randomized="0"
       d="m 67.537686,82.412862 -1.727883,-3.586727 -1.055312,-3.838814 2.877234,-2.751675 3.324821,-2.18992 3.506112,1.886098 3.110164,2.48537 -0.710338,3.917347 -1.402633,3.725963 -3.945126,0.534956 z"
       transform="matrix(-0.28922626,-1.101309,0.96109114,-0.30231046,20.384265,1127.3554)"
       inkscape:transform-center-x="-0.047285735"
       inkscape:transform-center-y="0.53061361" />
    <rect
       style="fill:#ffffff;fill-opacity:0;stroke:#3a4c7c;stroke-width:0.659;stroke-linecap:round;stroke-linejoin:round;stroke-miterlimit:4;stroke-opacity:1;stroke-dasharray:none"
       id="rect3043"
       width="27.712671"
       height="34.01302"
       x="61.480999"
       y="961.53613"
       ry="3.7627745" />
    <path
       sodipodi:type="arc"
       style="fill:#c1c1cf;fill-opacity:1;stroke:#3a4c7c;stroke-width:0.38127346000000001;stroke-linecap:round;stroke-linejoin:round;stroke-miterlimit:4;stroke-opacity:1;stroke-dasharray:none"
       id="path6758"
       sodipodi:cx="76.33181"
       sodipodi:cy="27.170286"
       sodipodi:rx="11.339421"
       sodipodi:ry="3.0441401"
       d="m 87.671231,27.170286 a 11.339421,3.0441401 0 1 1 -22.678842,0 11.339421,3.0441401 0 1 1 22.678842,0 z"
       transform="matrix(1.2134599,0,0,1,-17.384661,935.72772)" />
    <path
       style="fill:none;stroke:#3a4c7c;stroke-width:0.60000002;stroke-linecap:butt;stroke-linejoin:miter;stroke-miterlimit:4;stroke-opacity:1;stroke-dasharray:none"
       d="m 61.509401,25.786208 2.598989,0.86633 2.598988,0.371283 c 1.113459,0.05111 2.227369,0.09237 3.341558,0.123762 4.661075,0.131342 9.327013,0.09005 13.985034,-0.123761 l 1.980182,-0.247523 1.856421,-0.618807 1.113852,-0.866329"
       id="path3806"
       inkscape:path-effect="#path-effect3808"
       inkscape:original-d="m 61.509401,25.786208 2.598989,0.86633 2.598988,0.371283 3.341558,0.123762 13.985034,-0.123761 1.980182,-0.247523 1.856421,-0.618807 1.113852,-0.866329"
       inkscape:connector-curvature="0"
       transform="translate(0,944.52209)"
       sodipodi:nodetypes="cccccccc" />
    <path
       style="fill:none;stroke:#3a4c7c;stroke-width:0.60000002;stroke-linecap:butt;stroke-linejoin:miter;stroke-miterlimit:4;stroke-opacity:1;stroke-dasharray:none"
       d="m 61.756923,976.27325 2.598989,0.86632 2.598988,0.37129 c 1.113459,0.0511 2.227369,0.0924 3.341558,0.12376 4.661075,0.13134 9.327013,0.09 13.985034,-0.12376 l 1.980182,-0.24752 1.856421,-0.61881 1.113852,-0.86633"
       id="path3806-6"
       inkscape:path-effect="#path-effect3808-3"
       inkscape:original-d="m 61.756923,976.27325 2.598989,0.86632 2.598988,0.37129 3.341558,0.12376 13.985034,-0.12376 1.980182,-0.24752 1.856421,-0.61881 1.113852,-0.86633"
       inkscape:connector-curvature="0"
       sodipodi:nodetypes="cccccccc" />
    <path
       style="fill:none;stroke:#3a4c7c;stroke-width:0.60000002;stroke-linecap:butt;stroke-linejoin:miter;stroke-miterlimit:4;stroke-opacity:1;stroke-dasharray:none"
       d="m 61.509401,982.46132 2.598989,0.86632 2.598988,0.37129 c 1.113459,0.0511 2.227369,0.0924 3.341558,0.12376 4.661075,0.13134 9.327013,0.0901 13.985034,-0.12376 l 1.980182,-0.24752 1.856421,-0.61881 1.113852,-0.86633"
       id="path3806-5"
       inkscape:path-effect="#path-effect3808-7"
       inkscape:original-d="m 61.509401,982.46132 2.598989,0.86632 2.598988,0.37129 3.341558,0.12376 13.985034,-0.12376 1.980182,-0.24752 1.856421,-0.61881 1.113852,-0.86633"
       inkscape:connector-curvature="0"
       sodipodi:nodetypes="cccccccc" />
    <path
       style="fill:none;stroke:#3a4c7c;stroke-width:0.60000002;stroke-linecap:butt;stroke-linejoin:miter;stroke-miterlimit:4;stroke-opacity:1;stroke-dasharray:none"
       d="m 61.385639,988.40187 2.598989,0.86632 2.598988,0.37129 c 1.113459,0.0511 2.227369,0.0924 3.341558,0.12376 4.661075,0.13134 9.327013,0.0901 13.985034,-0.12376 l 1.980182,-0.24752 1.856421,-0.61881 1.113852,-0.86633"
       id="path3806-62"
       inkscape:path-effect="#path-effect3808-35"
       inkscape:original-d="m 61.385639,988.40187 2.598989,0.86632 2.598988,0.37129 3.341558,0.12376 13.985034,-0.12376 1.980182,-0.24752 1.856421,-0.61881 1.113852,-0.86633"
       inkscape:connector-curvature="0"
       sodipodi:nodetypes="cccccccc" />
    <path
       sodipodi:type="star"
       style="fill:#ab4371;fill-opacity:1;stroke:#ab4371;stroke-width:0.60000002;stroke-linecap:round;stroke-linejoin:round;stroke-miterlimit:4;stroke-opacity:1;stroke-dasharray:none"
       id="path3881"
       sodipodi:sides="5"
       sodipodi:cx="71.657829"
       sodipodi:cy="83.830292"
       sodipodi:r1="1.8398449"
       sodipodi:r2="0.73142833"
       sodipodi:arg1="0.83298127"
       sodipodi:arg2="1.3315031"
       inkscape:flatsided="false"
       inkscape:rounded="0"
       inkscape:randomized="0"
       d="m 72.895443,85.191667 -1.064253,-0.650788 -1.085662,0.887141 0.290064,-1.213269 -1.179209,-0.758384 1.243522,-0.09905 0.35687,-1.355849 0.478475,1.152051 1.399767,-0.07958 -0.947808,0.811061 z"
       transform="matrix(0.6310962,0,0,0.6977259,27.154494,969.20808)"
       inkscape:transform-center-x="0.039209549"
       inkscape:transform-center-y="-0.08062321" />
    <path
       sodipodi:type="star"
       style="fill:#ab4371;fill-opacity:1;stroke:#ab4371;stroke-width:0.60000002;stroke-linecap:round;stroke-linejoin:round;stroke-miterlimit:4;stroke-opacity:1;stroke-dasharray:none"
       id="path3881-9"
       sodipodi:sides="5"
       sodipodi:cx="71.657829"
       sodipodi:cy="83.830292"
       sodipodi:r1="1.8398449"
       sodipodi:r2="0.73142833"
       sodipodi:arg1="0.83298127"
       sodipodi:arg2="1.3315031"
       inkscape:flatsided="false"
       inkscape:rounded="0"
       inkscape:randomized="0"
       d="m 72.895443,85.191667 -1.064253,-0.650788 -1.085662,0.887141 0.290064,-1.213269 -1.179209,-0.758384 1.243522,-0.09905 0.35687,-1.355849 0.478475,1.152051 1.399767,-0.07958 -0.947808,0.811061 z"
       transform="matrix(0.6310962,0,0,0.6977259,25.607729,979.10078)"
       inkscape:transform-center-x="0.039209549"
       inkscape:transform-center-y="-0.08062321" />
    <path
       sodipodi:type="star"
       style="fill:#ab4371;fill-opacity:1;stroke:#ab4371;stroke-width:0.60000002;stroke-linecap:round;stroke-linejoin:round;stroke-miterlimit:4;stroke-opacity:1;stroke-dasharray:none"
       id="path3881-1"
       sodipodi:sides="5"
       sodipodi:cx="71.657829"
       sodipodi:cy="83.830292"
       sodipodi:r1="1.8398449"
       sodipodi:r2="0.73142833"
       sodipodi:arg1="0.83298127"
       sodipodi:arg2="1.3315031"
       inkscape:flatsided="false"
       inkscape:rounded="0"
       inkscape:randomized="0"
       d="m 72.895443,85.191667 -1.064253,-0.650788 -1.085662,0.887141 0.290064,-1.213269 -1.179209,-0.758384 1.243522,-0.09905 0.35687,-1.355849 0.478475,1.152051 1.399767,-0.07958 -0.947808,0.811061 z"
       transform="matrix(0.6310962,0,0,0.6977259,31.05323,974.52161)"
       inkscape:transform-center-x="0.039209549"
       inkscape:transform-center-y="-0.08062321" />
    <path
       sodipodi:type="star"
       style="fill:#ab4371;fill-opacity:1;stroke:#ab4371;stroke-width:0.60000002;stroke-linecap:round;stroke-linejoin:round;stroke-miterlimit:4;stroke-opacity:1;stroke-dasharray:none"
       id="path3881-7"
       sodipodi:sides="5"
       sodipodi:cx="71.657829"
       sodipodi:cy="83.830292"
       sodipodi:r1="1.8398449"
       sodipodi:r2="0.73142833"
       sodipodi:arg1="0.83298127"
       sodipodi:arg2="1.3315031"
       inkscape:flatsided="false"
       inkscape:rounded="0"
       inkscape:randomized="0"
       d="m 72.895443,85.191667 -1.064253,-0.650788 -1.085662,0.887141 0.290064,-1.213269 -1.179209,-0.758384 1.243522,-0.09905 0.35687,-1.355849 0.478475,1.152051 1.399767,-0.07958 -0.947808,0.811061 z"
       transform="matrix(0.6310962,0,0,0.6977259,23.966983,973.07154)"
       inkscape:transform-center-x="1.2967492" />
    <path
       sodipodi:type="star"
       style="fill:#ab4371;fill-opacity:1;stroke:#ab4371;stroke-width:0.60000002;stroke-linecap:round;stroke-linejoin:round;stroke-miterlimit:4;stroke-opacity:1;stroke-dasharray:none"
       id="path3881-0"
       sodipodi:sides="5"
       sodipodi:cx="71.657829"
       sodipodi:cy="83.830292"
       sodipodi:r1="1.8398449"
       sodipodi:r2="0.73142833"
       sodipodi:arg1="0.83298127"
       sodipodi:arg2="1.3315031"
       inkscape:flatsided="false"
       inkscape:rounded="0"
       inkscape:randomized="0"
       d="m 72.895443,85.191667 -1.064253,-0.650788 -1.085662,0.887141 0.290064,-1.213269 -1.179209,-0.758384 1.243522,-0.09905 0.35687,-1.355849 0.478475,1.152051 1.399767,-0.07958 -0.947808,0.811061 z"
       transform="matrix(0.6310962,0,0,0.6977259,30.805707,964.00189)"
       inkscape:transform-center-x="0.039209549"
       inkscape:transform-center-y="-0.08062321" />
    <path
       style="fill:#c0e7f6;fill-opacity:1;stroke:#ea323f;stroke-width:0;stroke-linecap:round;stroke-linejoin:round;stroke-miterlimit:4;stroke-opacity:1;stroke-dasharray:none"
       d="m 68.685742,26.65678 c -2.683749,-0.109681 -3.808909,-0.251028 -5.113538,-0.642383 l -1.672678,-0.50176 0.05978,-2.81635 c 0.06671,-3.143127 -0.02693,-3.010164 1.672678,-2.375146 1.859063,0.694597 5.381742,1.170801 9.677419,1.308217 6.103888,0.19526 11.087359,-0.344942 14.015484,-1.519262 l 1.219787,-0.489193 0.121363,0.452098 c 0.06675,0.248653 0.122686,1.429034 0.124301,2.623068 0.0034,2.503415 -0.06598,2.621714 -1.96218,3.346627 -1.822424,0.696707 -9.643328,0.961429 -18.142411,0.614084 z"
       id="path5084"
       inkscape:connector-curvature="0"
       transform="translate(0,944.52209)" />
    <path
       style="fill:#c0e7f6;fill-opacity:1;stroke:#ea323f;stroke-width:0;stroke-linecap:round;stroke-linejoin:round;stroke-miterlimit:4;stroke-opacity:1;stroke-dasharray:none"
       d="m 65.782516,32.440061 c -0.650537,-0.110603 -1.787634,-0.401057 -2.526882,-0.645455 l -1.344086,-0.444359 0,-2.480667 c 0,-2.823669 -0.280999,-2.582306 2.150538,-1.847193 1.000199,0.302384 2.575885,0.37027 10.206711,0.439742 9.726777,0.08855 11.704741,-0.04091 13.460124,-0.881005 l 1.064348,-0.509378 0,2.524523 c 0,2.861943 0.05224,2.771217 -2.043011,3.547939 -0.977512,0.362369 -1.925759,0.403079 -10.430107,0.447779 -5.145162,0.02704 -9.887097,-0.04132 -10.537635,-0.151926 l 0,0 z"
       id="path5086"
       inkscape:connector-curvature="0"
       transform="translate(0,944.52209)" />
    <path
       style="fill:#c0e7f6;fill-opacity:1;stroke:#ea323f;stroke-width:0;stroke-linecap:round;stroke-linejoin:round;stroke-miterlimit:4;stroke-opacity:1;stroke-dasharray:none"
       d="M 66.058135,38.669127 C 65.086069,38.554393 63.779618,38.286932 63.154909,38.07477 l -1.135834,-0.38575 -0.06012,-2.712349 -0.06012,-2.712349 1.171146,0.402933 c 1.840071,0.633077 5.261181,0.869178 12.481065,0.861354 7.548287,-0.0082 10.52545,-0.209467 12.133097,-0.820325 l 1.109123,-0.421433 -0.0119,2.398693 c -0.01176,2.371373 -0.01884,2.404166 -0.621163,2.879048 -1.353428,1.067062 -2.466859,1.185866 -11.73253,1.251868 -4.731182,0.0337 -9.397476,-0.0326 -10.369542,-0.147333 z"
       id="path5088"
       inkscape:connector-curvature="0"
       transform="translate(0,944.52209)" />
    <path
       style="fill:#c0e7f6;fill-opacity:1;stroke:#ea323f;stroke-width:0;stroke-linecap:round;stroke-linejoin:round;stroke-miterlimit:4;stroke-opacity:1;stroke-dasharray:none"
       d="m 67.341545,44.707932 c -1.396331,-0.09379 -3.056006,-0.355857 -3.924731,-0.619723 l -1.505266,-0.457211 0,-2.551905 0,-2.551904 1.303601,0.405726 c 1.746528,0.543581 5.944296,0.839588 11.814679,0.833117 7.269149,-0.008 10.851247,-0.272714 12.454606,-0.92034 l 1.308835,-0.528662 0,2.300151 0,2.30015 -0.653185,0.482921 c -1.193452,0.882357 -2.325927,1.132101 -6.013482,1.326146 -4.180414,0.21998 -11.368771,0.211002 -14.785057,-0.01847 z"
       id="path5090"
       inkscape:connector-curvature="0"
       transform="translate(0,944.52209)" />
    <path
       sodipodi:type="arc"
       style="fill:#e9c6af;fill-opacity:1;stroke-width:6.30000019;stroke-linecap:round;stroke-linejoin:round;stroke-miterlimit:4;stroke-dasharray:none"
       id="path3047-8"
       sodipodi:cx="180.26315"
       sodipodi:cy="795.78326"
       sodipodi:rx="25"
       sodipodi:ry="31.578947"
       d="m 205.26315,795.78326 a 25,31.578947 0 1 1 -50,0 25,31.578947 0 1 1 50,0 z"
       transform="matrix(0.22784227,0,0,0.19490969,32.368684,859.00141)" />
    <path
       style="fill:#c0e7f6;fill-opacity:1;stroke:#ea323f;stroke-width:0;stroke-linecap:round;stroke-linejoin:round;stroke-miterlimit:4;stroke-opacity:1;stroke-dasharray:none"
       d="m 63.576448,50.046771 c -1.174826,-0.680935 -1.6649,-1.832944 -1.6649,-3.913654 0,-1.507963 0.03764,-1.660949 0.376345,-1.529645 1.661978,0.644291 3.091256,0.810104 8.381628,0.972368 7.746884,0.237609 14.57846,-0.02363 16.272382,-0.622249 0.696805,-0.246246 1.408108,-0.564898 1.580673,-0.708116 0.272231,-0.225929 0.303792,0.0281 0.238463,1.919203 -0.08316,2.407318 -0.316903,2.944741 -1.686013,3.876549 l -0.710955,0.483871 -10.989702,-0.0049 C 64.48,50.515261 64.377656,50.511155 63.576448,50.046771 z"
       id="path5092"
       inkscape:connector-curvature="0"
       transform="translate(0,944.52209)" />
  </g>
</svg>
