<?xml version="1.0" encoding="UTF-8" standalone="no"?>
<!-- Created with Inkscape (http://www.inkscape.org/) -->

<svg
   xmlns:dc="http://purl.org/dc/elements/1.1/"
   xmlns:cc="http://creativecommons.org/ns#"
   xmlns:rdf="http://www.w3.org/1999/02/22-rdf-syntax-ns#"
   xmlns:svg="http://www.w3.org/2000/svg"
   xmlns="http://www.w3.org/2000/svg"
   xmlns:sodipodi="http://sodipodi.sourceforge.net/DTD/sodipodi-0.dtd"
   xmlns:inkscape="http://www.inkscape.org/namespaces/inkscape"
   width="155.90552"
   height="109.84252"
   id="svg2"
   version="1.1"
   inkscape:version="0.48.4 r9939"
   sodipodi:docname="rama.svg">
  <defs
     id="defs4">
    <inkscape:path-effect
       effect="spiro"
       id="path-effect3094"
       is_visible="true" />
    <inkscape:path-effect
       effect="spiro"
       id="path-effect3090"
       is_visible="true" />
    <inkscape:path-effect
       effect="spiro"
       id="path-effect4575"
       is_visible="true" />
    <inkscape:path-effect
       effect="spiro"
       id="path-effect4571"
       is_visible="true" />
    <inkscape:path-effect
       effect="spiro"
       id="path-effect4567"
       is_visible="true" />
    <inkscape:path-effect
       effect="spiro"
       id="path-effect4563"
       is_visible="true" />
    <inkscape:path-effect
       effect="spiro"
       id="path-effect4476"
       is_visible="true" />
    <inkscape:path-effect
       effect="spiro"
       id="path-effect4472"
       is_visible="true" />
    <inkscape:path-effect
       effect="spiro"
       id="path-effect4468"
       is_visible="true" />
    <inkscape:path-effect
       effect="spiro"
       id="path-effect4200"
       is_visible="true" />
    <inkscape:path-effect
       effect="spiro"
       id="path-effect4163"
       is_visible="true" />
    <inkscape:path-effect
       effect="spiro"
       id="path-effect4151"
       is_visible="true" />
    <inkscape:path-effect
       effect="spiro"
       id="path-effect4143"
       is_visible="true" />
    <inkscape:path-effect
       effect="spiro"
       id="path-effect4163-7"
       is_visible="true" />
  </defs>
  <sodipodi:namedview
     id="base"
     pagecolor="#ffffff"
     bordercolor="#666666"
     borderopacity="1.0"
     inkscape:pageopacity="0.0"
     inkscape:pageshadow="2"
     inkscape:zoom="9.66"
     inkscape:cx="44.939259"
     inkscape:cy="71.715578"
     inkscape:document-units="px"
     inkscape:current-layer="layer1"
     showgrid="false"
     inkscape:window-width="1366"
     inkscape:window-height="713"
     inkscape:window-x="0"
     inkscape:window-y="30"
     inkscape:window-maximized="1"
     showguides="false" />
  <metadata
     id="metadata7">
    <rdf:RDF>
      <cc:Work
         rdf:about="">
        <dc:format>image/svg+xml</dc:format>
        <dc:type
           rdf:resource="http://purl.org/dc/dcmitype/StillImage" />
        <dc:title />
      </cc:Work>
    </rdf:RDF>
  </metadata>
  <g
     inkscape:label="Capa 1"
     inkscape:groupmode="layer"
     id="layer1"
     style="display:inline"
     transform="translate(0,-942.51971)">
    <path
       style="fill:none;stroke:#0052d4;stroke-width:0.903;stroke-linecap:butt;stroke-linejoin:miter;stroke-opacity:1;stroke-miterlimit:4;stroke-dasharray:none"
       d="m 22.657951,995.83901 99.216599,-0.09"
       id="path4466"
       inkscape:path-effect="#path-effect4468"
       inkscape:original-d="m 22.657951,995.83901 99.216599,-0.09"
       inkscape:connector-curvature="0" />
    <path
       transform="matrix(0.17582407,0,0,0.16711733,72.096841,884.97534)"
       sodipodi:type="arc"
       style="fill:#cbddd6;fill-opacity:1;stroke:#0097ad;stroke-width:4.66702461;stroke-miterlimit:4;stroke-opacity:1;stroke-dasharray:none;display:inline"
       id="path3038-2-2-1"
       sodipodi:cx="330"
       sodipodi:cy="890.93359"
       sodipodi:rx="47.142857"
       sodipodi:ry="50"
       d="m 377.14286,890.93359 c 0,27.61424 -21.10658,50 -47.14286,50 -26.03628,0 -47.14286,-22.38576 -47.14286,-50 0,-27.61423 21.10658,-50 47.14286,-50 26.03628,0 47.14286,22.38577 47.14286,50 z" />
    <path
       sodipodi:type="arc"
       style="fill:#37c8ab;display:inline;stroke:#0097ad;stroke-opacity:1;stroke-width:4.59668585;stroke-miterlimit:4;stroke-dasharray:none"
       id="path3038-6"
       sodipodi:cx="330"
       sodipodi:cy="890.93359"
       sodipodi:rx="47.142857"
       sodipodi:ry="50"
       d="m 377.14286,890.93359 c 0,27.61424 -21.10658,50 -47.14286,50 -26.03628,0 -47.14286,-22.38576 -47.14286,-50 0,-27.61423 21.10658,-50 47.14286,-50 26.03628,0 47.14286,22.38577 47.14286,50 z"
       transform="matrix(0.17659199,0,0,0.1715218,-1.6034572,841.07046)" />
    <path
       sodipodi:type="arc"
       style="fill:#37c8ab;display:inline;stroke-width:4.59621070000000032;stroke-miterlimit:4;stroke-dasharray:none;stroke:#0097ad;stroke-opacity:1"
       id="path3038-7"
       sodipodi:cx="330"
       sodipodi:cy="890.93359"
       sodipodi:rx="47.142857"
       sodipodi:ry="50"
       d="m 377.14286,890.93359 c 0,27.61424 -21.10658,50 -47.14286,50 -26.03628,0 -47.14286,-22.38576 -47.14286,-50 0,-27.61423 21.10658,-50 47.14286,-50 26.03628,0 47.14286,22.38577 47.14286,50 z"
       transform="matrix(0.17992199,0,0,0.16838208,20.53155,843.86775)" />
    <path
       sodipodi:type="arc"
       style="fill:#37c8ab;stroke:#0097ad;stroke-width:4.51242018;stroke-miterlimit:4;stroke-opacity:1;stroke-dasharray:none;display:inline"
       id="path3038-5"
       sodipodi:cx="330"
       sodipodi:cy="890.93359"
       sodipodi:rx="47.142857"
       sodipodi:ry="50"
       d="m 377.14286,890.93359 c 0,27.61424 -21.10658,50 -47.14286,50 -26.03628,0 -47.14286,-22.38576 -47.14286,-50 0,-27.61423 21.10658,-50 47.14286,-50 26.03628,0 47.14286,22.38577 47.14286,50 z"
       transform="matrix(0.17522274,0,0,0.16709109,69.256555,845.09642)" />
    <path
       sodipodi:type="arc"
       style="fill:#37c8ab;stroke:#0097ad;stroke-opacity:1;stroke-width:4.61762614;stroke-miterlimit:4;stroke-dasharray:none"
       id="path3038"
       sodipodi:cx="330"
       sodipodi:cy="890.93359"
       sodipodi:rx="47.142857"
       sodipodi:ry="50"
       d="m 377.14286,890.93359 c 0,27.61424 -21.10658,50 -47.14286,50 -26.03628,0 -47.14286,-22.38576 -47.14286,-50 0,-27.61423 21.10658,-50 47.14286,-50 26.03628,0 47.14286,22.38577 47.14286,50 z"
       transform="matrix(0.17825699,0,0,0.16838208,-42.962171,844.76543)" />
    <path
       style="fill:none;stroke:#0052d4;stroke-width:0.92900002;stroke-linecap:butt;stroke-linejoin:miter;stroke-miterlimit:4;stroke-opacity:1;stroke-dasharray:none"
       d="m 102.18997,995.65152 -0.05,12.91668 -4.812093,4.9166 -24.2226,0.314 -3.255974,4.6333 0.06196,15.5712 51.530057,-0.09"
       id="path3092"
       inkscape:path-effect="#path-effect3094"
       inkscape:original-d="m 102.18997,995.65152 -0.05,12.91668 -4.812093,4.9166 -24.2226,0.314 -3.255974,4.6333 0.06196,15.5712 c 17.151608,-0.6847 34.361985,-0.1641 51.530055,-0.09"
       inkscape:connector-curvature="0"
       sodipodi:nodetypes="ccccccc" />
    <path
       transform="matrix(0.17748908,0,0,0.17339676,44.92154,879.33327)"
       sodipodi:type="arc"
       style="fill:#cbddd6;fill-opacity:1;stroke:#0097ad;stroke-width:4.56019783;stroke-miterlimit:4;stroke-opacity:1;stroke-dasharray:none;display:inline"
       id="path3038-2-2-1-3"
       sodipodi:cx="330"
       sodipodi:cy="890.93359"
       sodipodi:rx="47.142857"
       sodipodi:ry="50"
       d="m 377.14286,890.93359 c 0,27.61424 -21.10658,50 -47.14286,50 -26.03628,0 -47.14286,-22.38576 -47.14286,-50 0,-27.61423 21.10658,-50 47.14286,-50 26.03628,0 47.14286,22.38577 47.14286,50 z" />
    <path
       style="fill:none;stroke:#0052d4;stroke-width:0.89999998;stroke-linecap:butt;stroke-linejoin:miter;stroke-miterlimit:4;stroke-opacity:1;stroke-dasharray:none"
       d="m 33.381112,52.70649 0.09613,-27.812948 5.631868,-8.555731 48.018054,0.215856"
       id="path3088"
       inkscape:path-effect="#path-effect3090"
       inkscape:original-d="m 33.381112,52.70649 0.09613,-27.812948 5.631868,-8.555731 48.018054,0.215856"
       inkscape:connector-curvature="0"
       transform="translate(0,942.51971)"
       sodipodi:nodetypes="cccc" />
    <path
       transform="matrix(0.17579592,0,0,0.16700516,0.17124028,810.28325)"
       sodipodi:type="arc"
       style="fill:#b8e1ee;fill-opacity:1;stroke:#0097ad;stroke-width:4.66896534;stroke-miterlimit:4;stroke-opacity:1;stroke-dasharray:none;display:inline"
       id="path3038-2-1-7"
       sodipodi:cx="330"
       sodipodi:cy="890.93359"
       sodipodi:rx="47.142857"
       sodipodi:ry="50"
       d="m 377.14286,890.93359 c 0,27.61424 -21.10658,50 -47.14286,50 -26.03628,0 -47.14286,-22.38576 -47.14286,-50 0,-27.61423 21.10658,-50 47.14286,-50 26.03628,0 47.14286,22.38577 47.14286,50 z" />
    <path
       transform="matrix(0.17413092,0,0,0.1654353,36.708698,811.77961)"
       sodipodi:type="arc"
       style="fill:#b8e1ee;fill-opacity:1;stroke:#0097ad;stroke-width:4.71343946;stroke-miterlimit:4;stroke-opacity:1;stroke-dasharray:none;display:inline"
       id="path3038-2-1-7-3"
       sodipodi:cx="330"
       sodipodi:cy="890.93359"
       sodipodi:rx="47.142857"
       sodipodi:ry="50"
       d="m 377.14286,890.93359 c 0,27.61424 -21.10658,50 -47.14286,50 -26.03628,0 -47.14286,-22.38576 -47.14286,-50 0,-27.61423 21.10658,-50 47.14286,-50 26.03628,0 47.14286,22.38577 47.14286,50 z" />
  </g>
</svg>
