<?xml version="1.0" encoding="UTF-8" standalone="no"?>
<!-- Created with Inkscape (http://www.inkscape.org/) -->

<svg
   xmlns:dc="http://purl.org/dc/elements/1.1/"
   xmlns:cc="http://creativecommons.org/ns#"
   xmlns:rdf="http://www.w3.org/1999/02/22-rdf-syntax-ns#"
   xmlns:svg="http://www.w3.org/2000/svg"
   xmlns="http://www.w3.org/2000/svg"
   xmlns:sodipodi="http://sodipodi.sourceforge.net/DTD/sodipodi-0.dtd"
   xmlns:inkscape="http://www.inkscape.org/namespaces/inkscape"
   width="155.90552"
   height="107.84"
   id="svg2994"
   version="1.1"
   inkscape:version="0.48.4 r9939"
   sodipodi:docname="workflow_centralizado5.svg">
  <defs
     id="defs2996">
    <inkscape:path-effect
       effect="spiro"
       id="path-effect5657"
       is_visible="true" />
    <inkscape:path-effect
       effect="spiro"
       id="path-effect5645"
       is_visible="true" />
    <inkscape:path-effect
       effect="spiro"
       id="path-effect5622"
       is_visible="true" />
    <inkscape:path-effect
       effect="spiro"
       id="path-effect5225"
       is_visible="true" />
    <inkscape:path-effect
       effect="spiro"
       id="path-effect5221"
       is_visible="true" />
    <inkscape:path-effect
       effect="spiro"
       id="path-effect5217"
       is_visible="true" />
    <inkscape:path-effect
       effect="spiro"
       id="path-effect3041"
       is_visible="true" />
    <inkscape:path-effect
       effect="spiro"
       id="path-effect3808"
       is_visible="true" />
    <inkscape:path-effect
       effect="spiro"
       id="path-effect6941"
       is_visible="true" />
    <inkscape:path-effect
       effect="spiro"
       id="path-effect6937"
       is_visible="true" />
    <inkscape:path-effect
       effect="spiro"
       id="path-effect6933"
       is_visible="true" />
    <inkscape:path-effect
       effect="spiro"
       id="path-effect6908"
       is_visible="true" />
    <inkscape:path-effect
       effect="spiro"
       id="path-effect6896"
       is_visible="true" />
    <inkscape:path-effect
       effect="spiro"
       id="path-effect6892"
       is_visible="true" />
    <inkscape:path-effect
       effect="spiro"
       id="path-effect6833"
       is_visible="true" />
    <inkscape:path-effect
       effect="spiro"
       id="path-effect6829"
       is_visible="true" />
    <inkscape:path-effect
       effect="spiro"
       id="path-effect6825"
       is_visible="true" />
    <inkscape:path-effect
       effect="spiro"
       id="path-effect6788"
       is_visible="true" />
    <inkscape:path-effect
       effect="spiro"
       id="path-effect6762"
       is_visible="true" />
    <inkscape:path-effect
       effect="spiro"
       id="path-effect4340"
       is_visible="true" />
    <inkscape:perspective
       sodipodi:type="inkscape:persp3d"
       inkscape:vp_x="0 : 53.919998 : 1"
       inkscape:vp_y="0 : 1000 : 0"
       inkscape:vp_z="155.90552 : 53.919998 : 1"
       inkscape:persp3d-origin="77.952759 : 35.946665 : 1"
       id="perspective4322" />
    <inkscape:path-effect
       effect="spiro"
       id="path-effect4320"
       is_visible="true" />
    <inkscape:path-effect
       effect="spiro"
       id="path-effect4316"
       is_visible="true" />
    <inkscape:path-effect
       effect="spiro"
       id="path-effect4005"
       is_visible="true" />
    <inkscape:path-effect
       effect="spiro"
       id="path-effect6788-0"
       is_visible="true" />
    <inkscape:path-effect
       effect="spiro"
       id="path-effect6833-2"
       is_visible="true" />
    <inkscape:path-effect
       effect="spiro"
       id="path-effect6833-0"
       is_visible="true" />
    <inkscape:path-effect
       effect="spiro"
       id="path-effect6833-0-7"
       is_visible="true" />
    <inkscape:path-effect
       effect="spiro"
       id="path-effect6908-0"
       is_visible="true" />
    <inkscape:path-effect
       effect="spiro"
       id="path-effect6833-0-7-3"
       is_visible="true" />
    <inkscape:path-effect
       effect="spiro"
       id="path-effect3808-3"
       is_visible="true" />
    <inkscape:path-effect
       effect="spiro"
       id="path-effect3808-7"
       is_visible="true" />
    <inkscape:path-effect
       effect="spiro"
       id="path-effect3808-35"
       is_visible="true" />
  </defs>
  <sodipodi:namedview
     id="base"
     pagecolor="#ffffff"
     bordercolor="#666666"
     borderopacity="1.0"
     inkscape:pageopacity="0.0"
     inkscape:pageshadow="2"
     inkscape:zoom="7.5452852"
     inkscape:cx="72.000415"
     inkscape:cy="59.122235"
     inkscape:document-units="px"
     inkscape:current-layer="layer1"
     showgrid="false"
     height="108.84252px"
     inkscape:object-nodes="true"
     inkscape:snap-smooth-nodes="true"
     showguides="true"
     inkscape:window-width="1366"
     inkscape:window-height="713"
     inkscape:window-x="0"
     inkscape:window-y="30"
     inkscape:window-maximized="1"
     inkscape:guide-bbox="true" />
  <metadata
     id="metadata2999">
    <rdf:RDF>
      <cc:Work
         rdf:about="">
        <dc:format>image/svg+xml</dc:format>
        <dc:type
           rdf:resource="http://purl.org/dc/dcmitype/StillImage" />
        <dc:title></dc:title>
      </cc:Work>
    </rdf:RDF>
  </metadata>
  <g
     inkscape:label="Capa 1"
     inkscape:groupmode="layer"
     id="layer1"
     transform="translate(0,-944.52209)">
    <path
       sodipodi:type="star"
       style="fill:#a02c2c;fill-opacity:1;stroke:#000000;stroke-width:0;stroke-linecap:round;stroke-linejoin:round;stroke-miterlimit:4;stroke-opacity:1;stroke-dasharray:none"
       id="path3006"
       sodipodi:sides="5"
       sodipodi:cx="131.57895"
       sodipodi:cy="716.83588"
       sodipodi:r1="38.741234"
       sodipodi:r2="33.846794"
       sodipodi:arg1="-0.89888504"
       sodipodi:arg2="-0.27056652"
       inkscape:flatsided="false"
       inkscape:rounded="0"
       inkscape:randomized="0"
       d="m 155.69471,686.51569 8.49967,21.2737 3.67295,22.61248 -17.60594,14.65761 -20.37074,10.48083 -19.38075,-12.2148 -16.262765,-16.13498 5.627983,-22.20677 10.319802,-20.45278 22.85904,-1.50974 z"
       inkscape:transform-center-y="4.5513642"
       transform="matrix(-0.29217851,0.01903867,-0.0188421,-0.29522684,85.737177,1239.9637)"
       inkscape:transform-center-x="-0.11248539" />
    <rect
       style="fill:#a02c2c;fill-opacity:1;stroke-width:6.30000019;stroke-linecap:round;stroke-linejoin:round;stroke-miterlimit:4;stroke-dasharray:none"
       id="rect3008"
       width="0.71068585"
       height="0.56522977"
       x="718.0011"
       y="741.17432"
       transform="matrix(0.74649155,0.6653949,-0.66642072,0.7455759,0,0)" />
    <rect
       style="fill:#a02c2c;fill-opacity:1;stroke-width:6.30000019;stroke-linecap:round;stroke-linejoin:round;stroke-miterlimit:4;stroke-dasharray:none"
       id="rect3008-3"
       width="10.747641"
       height="8.5547295"
       x="614.01917"
       y="-810.1806"
       transform="matrix(-0.76593358,0.64291971,-0.62135398,-0.78352998,0,0)"
       ry="0.83597934"
       rx="2.5731981" />
    <path
       sodipodi:type="arc"
       style="fill:#e9c6af;fill-opacity:1;stroke-width:6.30000019000000044;stroke-linecap:round;stroke-linejoin:round;stroke-miterlimit:4;stroke-dasharray:none"
       id="path3047"
       sodipodi:cx="180.26315"
       sodipodi:cy="795.78326"
       sodipodi:rx="25"
       sodipodi:ry="31.578947"
       d="m 205.26315,795.78326 c 0,17.44058 -11.19288,31.57895 -25,31.57895 -13.80712,0 -25,-14.13837 -25,-31.57895 0,-17.44057 11.19288,-31.57894 25,-31.57894 13.80712,0 25,14.13837 25,31.57894 z"
       transform="matrix(0.22784227,0,0,0.19490969,-6.6096315,861.67377)" />
    <path
       sodipodi:type="star"
       style="fill:#ac9d93;fill-opacity:1;stroke-width:6.30000019;stroke-linecap:round;stroke-linejoin:round;stroke-miterlimit:4;stroke-dasharray:none"
       id="path3006-6"
       sodipodi:sides="5"
       sodipodi:cx="131.57895"
       sodipodi:cy="716.83588"
       sodipodi:r1="41.655575"
       sodipodi:r2="33.846794"
       sodipodi:arg1="-0.95924869"
       sodipodi:arg2="-0.33093017"
       inkscape:flatsided="false"
       inkscape:rounded="0"
       inkscape:randomized="0"
       d="m 155.49488,682.72994 8.09435,23.10834 7.81682,23.20369 -19.47604,14.83905 -19.65249,14.60457 -20.13121,-13.9373 -19.962726,-14.17757 7.034275,-23.45277 7.314851,-23.36679 24.47862,-0.55732 z"
       inkscape:transform-center-y="4.313797"
       transform="matrix(-0.27941397,-0.00129532,0.00355152,-0.29575235,153.50502,1243.1096)"
       inkscape:transform-center-x="0.011923189" />
    <rect
       style="fill:#ac9d93;fill-opacity:1;stroke-width:6.30000019;stroke-linecap:round;stroke-linejoin:round;stroke-miterlimit:4;stroke-dasharray:none"
       id="rect3008-9"
       width="11.370974"
       height="9.0436764"
       x="777.52557"
       y="679.27185"
       transform="matrix(0.74649155,0.6653949,-0.66642072,0.7455759,0,0)"
       ry="1.9933541" />
    <rect
       style="fill:#a02c2c;fill-opacity:1;stroke-width:6.30000019;stroke-linecap:round;stroke-linejoin:round;stroke-miterlimit:4;stroke-dasharray:none"
       id="rect3008-3-27"
       width="10.747641"
       height="8.5547295"
       x="-713.4353"
       y="-772.43439"
       transform="matrix(-0.77149277,-0.63623809,0.65746305,-0.75348679,0,0)"
       ry="1.1629274" />
    <rect
       style="fill:#ac9d93;fill-opacity:1;stroke-width:6.30000019;stroke-linecap:round;stroke-linejoin:round;stroke-miterlimit:4;stroke-dasharray:none"
       id="rect3008-3-0"
       width="10.747641"
       height="8.5547295"
       x="549.22687"
       y="-864.60156"
       transform="matrix(-0.76593358,0.64291971,-0.62135398,-0.78352998,0,0)"
       ry="1.3977326"
       rx="2.0687842" />
    <path
       sodipodi:type="arc"
       style="fill:#241f1c;fill-opacity:1;stroke:#000000;stroke-width:0;stroke-linecap:round;stroke-linejoin:round;stroke-miterlimit:4;stroke-opacity:1;stroke-dasharray:none"
       id="path4025"
       sodipodi:cx="119.74874"
       sodipodi:cy="84.272156"
       sodipodi:rx="0.35175881"
       sodipodi:ry="0.65326631"
       d="m 120.1005,84.272156 c 0,0.360789 -0.15749,0.653266 -0.35176,0.653266 -0.19427,0 -0.35176,-0.292477 -0.35176,-0.653266 0,-0.360789 0.15749,-0.653267 0.35176,-0.653267 0.19427,0 0.35176,0.292478 0.35176,0.653267 z"
       transform="translate(0,944.52209)" />
    <rect
       style="fill:#241f1c;fill-opacity:1;stroke:#000000;stroke-width:0;stroke-linecap:round;stroke-linejoin:round;stroke-miterlimit:4;stroke-opacity:1;stroke-dasharray:none"
       id="rect4027"
       width="2.7135677"
       height="2.914573"
       x="121.70854"
       y="83.116379"
       transform="translate(0,944.52209)" />
    <rect
       style="fill:#241f1c;fill-opacity:1;stroke:#000000;stroke-width:0;stroke-linecap:round;stroke-linejoin:round;stroke-miterlimit:4;stroke-opacity:1;stroke-dasharray:none"
       id="rect4027-9"
       width="2.7135677"
       height="2.914573"
       x="36.834171"
       y="1027.3872" />
    <path
       transform="translate(0.05025382,947.38641)"
       sodipodi:type="arc"
       style="fill:#241f1c;fill-opacity:1;stroke:#000000;stroke-width:0;stroke-linecap:round;stroke-linejoin:round;stroke-miterlimit:4;stroke-opacity:1;stroke-dasharray:none"
       id="path4025-3"
       sodipodi:cx="119.74874"
       sodipodi:cy="84.272156"
       sodipodi:rx="0.35175881"
       sodipodi:ry="0.65326631"
       d="m 120.1005,84.272156 c 0,0.360789 -0.15749,0.653266 -0.35176,0.653266 -0.19427,0 -0.35176,-0.292477 -0.35176,-0.653266 0,-0.360789 0.15749,-0.653267 0.35176,-0.653267 0.19427,0 0.35176,0.292478 0.35176,0.653267 z" />
    <path
       transform="translate(0.15075633,949.89897)"
       sodipodi:type="arc"
       style="fill:#241f1c;fill-opacity:1;stroke:#000000;stroke-width:0;stroke-linecap:round;stroke-linejoin:round;stroke-miterlimit:4;stroke-opacity:1;stroke-dasharray:none"
       id="path4025-6"
       sodipodi:cx="119.74874"
       sodipodi:cy="84.272156"
       sodipodi:rx="0.35175881"
       sodipodi:ry="0.65326631"
       d="m 120.1005,84.272156 c 0,0.360789 -0.15749,0.653266 -0.35176,0.653266 -0.19427,0 -0.35176,-0.292477 -0.35176,-0.653266 0,-0.360789 0.15749,-0.653267 0.35176,-0.653267 0.19427,0 0.35176,0.292478 0.35176,0.653267 z" />
    <path
       transform="translate(-85.477385,949.59747)"
       sodipodi:type="arc"
       style="fill:#241f1c;fill-opacity:1;stroke:#000000;stroke-width:0;stroke-linecap:round;stroke-linejoin:round;stroke-miterlimit:4;stroke-opacity:1;stroke-dasharray:none"
       id="path4025-0"
       sodipodi:cx="119.74874"
       sodipodi:cy="84.272156"
       sodipodi:rx="0.35175881"
       sodipodi:ry="0.65326631"
       d="m 120.1005,84.272156 c 0,0.360789 -0.15749,0.653266 -0.35176,0.653266 -0.19427,0 -0.35176,-0.292477 -0.35176,-0.653266 0,-0.360789 0.15749,-0.653267 0.35176,-0.653267 0.19427,0 0.35176,0.292478 0.35176,0.653267 z" />
    <path
       transform="translate(-85.477385,946.9844)"
       sodipodi:type="arc"
       style="fill:#241f1c;fill-opacity:1;stroke:#000000;stroke-width:0;stroke-linecap:round;stroke-linejoin:round;stroke-miterlimit:4;stroke-opacity:1;stroke-dasharray:none"
       id="path4025-62"
       sodipodi:cx="119.74874"
       sodipodi:cy="84.272156"
       sodipodi:rx="0.35175881"
       sodipodi:ry="0.65326631"
       d="m 120.1005,84.272156 c 0,0.360789 -0.15749,0.653266 -0.35176,0.653266 -0.19427,0 -0.35176,-0.292477 -0.35176,-0.653266 0,-0.360789 0.15749,-0.653267 0.35176,-0.653267 0.19427,0 0.35176,0.292478 0.35176,0.653267 z" />
    <path
       transform="translate(-85.477385,944.17033)"
       sodipodi:type="arc"
       style="fill:#241f1c;fill-opacity:1;stroke:#000000;stroke-width:0;stroke-linecap:round;stroke-linejoin:round;stroke-miterlimit:4;stroke-opacity:1;stroke-dasharray:none"
       id="path4025-61"
       sodipodi:cx="119.74874"
       sodipodi:cy="84.272156"
       sodipodi:rx="0.35175881"
       sodipodi:ry="0.65326631"
       d="m 120.1005,84.272156 c 0,0.360789 -0.15749,0.653266 -0.35176,0.653266 -0.19427,0 -0.35176,-0.292477 -0.35176,-0.653266 0,-0.360789 0.15749,-0.653267 0.35176,-0.653267 0.19427,0 0.35176,0.292478 0.35176,0.653267 z" />
    <rect
       style="fill:#d38d5f;fill-opacity:1;stroke:#000000;stroke-width:0;stroke-linecap:round;stroke-linejoin:round;stroke-miterlimit:4;stroke-opacity:1;stroke-dasharray:none"
       id="rect4120"
       width="13.266332"
       height="17.487438"
       x="66.934677"
       y="1024.2214"
       ry="4.3316479" />
    <path
       sodipodi:type="star"
       style="fill:#d38d5f;fill-opacity:1;stroke:#000000;stroke-width:0;stroke-linecap:round;stroke-linejoin:round;stroke-miterlimit:4;stroke-opacity:1;stroke-dasharray:none"
       id="path4122"
       sodipodi:sides="5"
       sodipodi:cx="71.256279"
       sodipodi:cy="76.784721"
       sodipodi:r1="6.7456579"
       sodipodi:r2="5.816483"
       sodipodi:arg1="2.1546667"
       sodipodi:arg2="2.7829853"
       inkscape:flatsided="false"
       inkscape:rounded="0"
       inkscape:randomized="0"
       d="m 67.537686,82.412862 -1.727883,-3.586727 -1.055312,-3.838814 2.877234,-2.751675 3.324821,-2.18992 3.506112,1.886098 3.110164,2.48537 -0.710338,3.917347 -1.402633,3.725963 -3.945126,0.534956 z"
       transform="matrix(-0.28922626,-1.101309,0.96109114,-0.30231046,20.384265,1127.3554)"
       inkscape:transform-center-x="-0.047285735"
       inkscape:transform-center-y="0.53061361" />
    <rect
       style="fill:#ffffff;fill-opacity:0;stroke:#3a4c7c;stroke-width:0.659;stroke-linecap:round;stroke-linejoin:round;stroke-miterlimit:4;stroke-opacity:1;stroke-dasharray:none"
       id="rect3043"
       width="27.712671"
       height="34.01302"
       x="61.480999"
       y="961.53613"
       ry="3.7627745" />
    <path
       sodipodi:type="arc"
       style="fill:#c1c1cf;fill-opacity:1;stroke:#3a4c7c;stroke-width:0.38127346000000001;stroke-linecap:round;stroke-linejoin:round;stroke-miterlimit:4;stroke-opacity:1;stroke-dasharray:none"
       id="path6758"
       sodipodi:cx="76.33181"
       sodipodi:cy="27.170286"
       sodipodi:rx="11.339421"
       sodipodi:ry="3.0441401"
       d="m 87.671231,27.170286 a 11.339421,3.0441401 0 1 1 -22.678842,0 11.339421,3.0441401 0 1 1 22.678842,0 z"
       transform="matrix(1.2134599,0,0,1,-17.384661,935.72772)" />
    <path
       style="fill:none;stroke:#3a4c7c;stroke-width:0.60000002;stroke-linecap:butt;stroke-linejoin:miter;stroke-miterlimit:4;stroke-opacity:1;stroke-dasharray:none"
       d="m 61.509401,25.786208 2.598989,0.86633 2.598988,0.371283 c 1.113459,0.05111 2.227369,0.09237 3.341558,0.123762 4.661075,0.131342 9.327013,0.09005 13.985034,-0.123761 l 1.980182,-0.247523 1.856421,-0.618807 1.113852,-0.866329"
       id="path3806"
       inkscape:path-effect="#path-effect3808"
       inkscape:original-d="m 61.509401,25.786208 2.598989,0.86633 2.598988,0.371283 3.341558,0.123762 13.985034,-0.123761 1.980182,-0.247523 1.856421,-0.618807 1.113852,-0.866329"
       inkscape:connector-curvature="0"
       transform="translate(0,944.52209)"
       sodipodi:nodetypes="cccccccc" />
    <path
       style="fill:none;stroke:#3a4c7c;stroke-width:0.60000002;stroke-linecap:butt;stroke-linejoin:miter;stroke-miterlimit:4;stroke-opacity:1;stroke-dasharray:none"
       d="m 61.756923,976.27325 2.598989,0.86632 2.598988,0.37129 c 1.113459,0.0511 2.227369,0.0924 3.341558,0.12376 4.661075,0.13134 9.327013,0.09 13.985034,-0.12376 l 1.980182,-0.24752 1.856421,-0.61881 1.113852,-0.86633"
       id="path3806-6"
       inkscape:path-effect="#path-effect3808-3"
       inkscape:original-d="m 61.756923,976.27325 2.598989,0.86632 2.598988,0.37129 3.341558,0.12376 13.985034,-0.12376 1.980182,-0.24752 1.856421,-0.61881 1.113852,-0.86633"
       inkscape:connector-curvature="0"
       sodipodi:nodetypes="cccccccc" />
    <path
       style="fill:none;stroke:#3a4c7c;stroke-width:0.60000002;stroke-linecap:butt;stroke-linejoin:miter;stroke-miterlimit:4;stroke-opacity:1;stroke-dasharray:none"
       d="m 61.509401,982.46132 2.598989,0.86632 2.598988,0.37129 c 1.113459,0.0511 2.227369,0.0924 3.341558,0.12376 4.661075,0.13134 9.327013,0.0901 13.985034,-0.12376 l 1.980182,-0.24752 1.856421,-0.61881 1.113852,-0.86633"
       id="path3806-5"
       inkscape:path-effect="#path-effect3808-7"
       inkscape:original-d="m 61.509401,982.46132 2.598989,0.86632 2.598988,0.37129 3.341558,0.12376 13.985034,-0.12376 1.980182,-0.24752 1.856421,-0.61881 1.113852,-0.86633"
       inkscape:connector-curvature="0"
       sodipodi:nodetypes="cccccccc" />
    <path
       style="fill:none;stroke:#3a4c7c;stroke-width:0.60000002;stroke-linecap:butt;stroke-linejoin:miter;stroke-miterlimit:4;stroke-opacity:1;stroke-dasharray:none"
       d="m 61.385639,988.40187 2.598989,0.86632 2.598988,0.37129 c 1.113459,0.0511 2.227369,0.0924 3.341558,0.12376 4.661075,0.13134 9.327013,0.0901 13.985034,-0.12376 l 1.980182,-0.24752 1.856421,-0.61881 1.113852,-0.86633"
       id="path3806-62"
       inkscape:path-effect="#path-effect3808-35"
       inkscape:original-d="m 61.385639,988.40187 2.598989,0.86632 2.598988,0.37129 3.341558,0.12376 13.985034,-0.12376 1.980182,-0.24752 1.856421,-0.61881 1.113852,-0.86633"
       inkscape:connector-curvature="0"
       sodipodi:nodetypes="cccccccc" />
    <path
       sodipodi:type="star"
       style="fill:#ab4371;fill-opacity:1;stroke:#ab4371;stroke-width:0.60000002;stroke-linecap:round;stroke-linejoin:round;stroke-miterlimit:4;stroke-opacity:1;stroke-dasharray:none"
       id="path3881"
       sodipodi:sides="5"
       sodipodi:cx="71.657829"
       sodipodi:cy="83.830292"
       sodipodi:r1="1.8398449"
       sodipodi:r2="0.73142833"
       sodipodi:arg1="0.83298127"
       sodipodi:arg2="1.3315031"
       inkscape:flatsided="false"
       inkscape:rounded="0"
       inkscape:randomized="0"
       d="m 72.895443,85.191667 -1.064253,-0.650788 -1.085662,0.887141 0.290064,-1.213269 -1.179209,-0.758384 1.243522,-0.09905 0.35687,-1.355849 0.478475,1.152051 1.399767,-0.07958 -0.947808,0.811061 z"
       transform="matrix(0.6310962,0,0,0.6977259,27.154494,969.20808)"
       inkscape:transform-center-x="0.039209549"
       inkscape:transform-center-y="-0.08062321" />
    <path
       sodipodi:type="star"
       style="fill:#ab4371;fill-opacity:1;stroke:#ab4371;stroke-width:0.60000002;stroke-linecap:round;stroke-linejoin:round;stroke-miterlimit:4;stroke-opacity:1;stroke-dasharray:none"
       id="path3881-9"
       sodipodi:sides="5"
       sodipodi:cx="71.657829"
       sodipodi:cy="83.830292"
       sodipodi:r1="1.8398449"
       sodipodi:r2="0.73142833"
       sodipodi:arg1="0.83298127"
       sodipodi:arg2="1.3315031"
       inkscape:flatsided="false"
       inkscape:rounded="0"
       inkscape:randomized="0"
       d="m 72.895443,85.191667 -1.064253,-0.650788 -1.085662,0.887141 0.290064,-1.213269 -1.179209,-0.758384 1.243522,-0.09905 0.35687,-1.355849 0.478475,1.152051 1.399767,-0.07958 -0.947808,0.811061 z"
       transform="matrix(0.6310962,0,0,0.6977259,25.607729,979.10078)"
       inkscape:transform-center-x="0.039209549"
       inkscape:transform-center-y="-0.08062321" />
    <path
       sodipodi:type="star"
       style="fill:#ab4371;fill-opacity:1;stroke:#ab4371;stroke-width:0.60000002;stroke-linecap:round;stroke-linejoin:round;stroke-miterlimit:4;stroke-opacity:1;stroke-dasharray:none"
       id="path3881-1"
       sodipodi:sides="5"
       sodipodi:cx="71.657829"
       sodipodi:cy="83.830292"
       sodipodi:r1="1.8398449"
       sodipodi:r2="0.73142833"
       sodipodi:arg1="0.83298127"
       sodipodi:arg2="1.3315031"
       inkscape:flatsided="false"
       inkscape:rounded="0"
       inkscape:randomized="0"
       d="m 72.895443,85.191667 -1.064253,-0.650788 -1.085662,0.887141 0.290064,-1.213269 -1.179209,-0.758384 1.243522,-0.09905 0.35687,-1.355849 0.478475,1.152051 1.399767,-0.07958 -0.947808,0.811061 z"
       transform="matrix(0.6310962,0,0,0.6977259,31.05323,974.52161)"
       inkscape:transform-center-x="0.039209549"
       inkscape:transform-center-y="-0.08062321" />
    <path
       sodipodi:type="star"
       style="fill:#ab4371;fill-opacity:1;stroke:#ab4371;stroke-width:0.60000002;stroke-linecap:round;stroke-linejoin:round;stroke-miterlimit:4;stroke-opacity:1;stroke-dasharray:none"
       id="path3881-7"
       sodipodi:sides="5"
       sodipodi:cx="71.657829"
       sodipodi:cy="83.830292"
       sodipodi:r1="1.8398449"
       sodipodi:r2="0.73142833"
       sodipodi:arg1="0.83298127"
       sodipodi:arg2="1.3315031"
       inkscape:flatsided="false"
       inkscape:rounded="0"
       inkscape:randomized="0"
       d="m 72.895443,85.191667 -1.064253,-0.650788 -1.085662,0.887141 0.290064,-1.213269 -1.179209,-0.758384 1.243522,-0.09905 0.35687,-1.355849 0.478475,1.152051 1.399767,-0.07958 -0.947808,0.811061 z"
       transform="matrix(0.6310962,0,0,0.6977259,23.966983,973.07154)"
       inkscape:transform-center-x="1.2967492" />
    <path
       sodipodi:type="star"
       style="fill:#ab4371;fill-opacity:1;stroke:#ab4371;stroke-width:0.60000002;stroke-linecap:round;stroke-linejoin:round;stroke-miterlimit:4;stroke-opacity:1;stroke-dasharray:none"
       id="path3881-0"
       sodipodi:sides="5"
       sodipodi:cx="71.657829"
       sodipodi:cy="83.830292"
       sodipodi:r1="1.8398449"
       sodipodi:r2="0.73142833"
       sodipodi:arg1="0.83298127"
       sodipodi:arg2="1.3315031"
       inkscape:flatsided="false"
       inkscape:rounded="0"
       inkscape:randomized="0"
       d="m 72.895443,85.191667 -1.064253,-0.650788 -1.085662,0.887141 0.290064,-1.213269 -1.179209,-0.758384 1.243522,-0.09905 0.35687,-1.355849 0.478475,1.152051 1.399767,-0.07958 -0.947808,0.811061 z"
       transform="matrix(0.6310962,0,0,0.6977259,30.805707,964.00189)"
       inkscape:transform-center-x="0.039209549"
       inkscape:transform-center-y="-0.08062321" />
    <path
       sodipodi:type="arc"
       style="fill:#e9c6af;fill-opacity:1;stroke-width:6.30000019;stroke-linecap:round;stroke-linejoin:round;stroke-miterlimit:4;stroke-dasharray:none"
       id="path3047-8"
       sodipodi:cx="180.26315"
       sodipodi:cy="795.78326"
       sodipodi:rx="25"
       sodipodi:ry="31.578947"
       d="m 205.26315,795.78326 a 25,31.578947 0 1 1 -50,0 25,31.578947 0 1 1 50,0 z"
       transform="matrix(0.22784227,0,0,0.19490969,32.368684,859.00141)" />
    <path
       sodipodi:type="arc"
       style="fill:#e9c6af;fill-opacity:1;stroke-width:6.30000019000000044;stroke-linecap:round;stroke-linejoin:round;stroke-miterlimit:4;stroke-dasharray:none"
       id="path3047-1"
       sodipodi:cx="180.26315"
       sodipodi:cy="795.78326"
       sodipodi:rx="25"
       sodipodi:ry="31.578947"
       d="m 205.26315,795.78326 c 0,17.44058 -11.19288,31.57895 -25,31.57895 -13.80712,0 -25,-14.13837 -25,-31.57895 0,-17.44057 11.19288,-31.57894 25,-31.57894 13.80712,0 25,14.13837 25,31.57894 z"
       transform="matrix(0.22784227,0,0,0.19490969,78.524324,861.72507)" />
    <path
       style="fill:#eaf3f7;fill-opacity:1;stroke:#231668;stroke-width:0.02650662;stroke-linecap:round;stroke-linejoin:round;stroke-miterlimit:4;stroke-opacity:1;stroke-dasharray:none"
       d="M 69.734099,26.748167 C 65.997267,26.6357 64.988807,26.507427 63.131325,25.908314 l -1.30145,-0.419769 0.04239,-2.74562 c 0.0262,-1.697206 0.09593,-2.79906 0.182601,-2.885569 0.09846,-0.09827 0.37694,-0.04376 0.935094,0.183039 5.469031,2.222266 19.626956,2.157445 24.76167,-0.113369 0.427158,-0.188909 0.812213,-0.308046 0.855679,-0.264749 0.04346,0.0433 0.0973,1.254006 0.119625,2.690464 l 0.0406,2.611742 -0.541158,0.434886 c -0.802509,0.644914 -2.096337,1.031606 -3.999827,1.195446 -2.203616,0.189673 -10.402914,0.276434 -14.492445,0.153352 z"
       id="path6840"
       inkscape:connector-curvature="0"
       transform="translate(0,944.52209)" />
    <path
       style="fill:#eaf3f7;fill-opacity:1;stroke:#231668;stroke-width:0.02650662;stroke-linecap:round;stroke-linejoin:round;stroke-miterlimit:4;stroke-opacity:1;stroke-dasharray:none"
       d="M 69.866632,32.705611 C 66.229429,32.587082 64.744971,32.39227 63.041177,31.809878 l -1.126531,-0.385071 -0.03599,-2.539316 c -0.0198,-1.396624 0.01449,-2.539316 0.07619,-2.539316 0.0617,0 0.540133,0.145556 1.063186,0.323457 2.171011,0.738409 3.165977,0.80265 12.348732,0.797306 9.021629,-0.0052 10.05109,-0.0636 11.83677,-0.670952 0.515434,-0.175311 1.074836,-0.448092 1.243114,-0.606181 l 0.305959,-0.287434 -0.0028,2.640631 -0.0028,2.640631 -0.49417,0.349049 c -0.723267,0.510868 -2.051912,0.874193 -3.759884,1.028161 -2.102082,0.189496 -10.655755,0.274159 -14.626253,0.144768 z"
       id="path6842"
       inkscape:connector-curvature="0"
       transform="translate(0,944.52209)" />
    <path
       style="fill:#eaf3f7;fill-opacity:1;stroke:#231668;stroke-width:0.02650662;stroke-linecap:round;stroke-linejoin:round;stroke-miterlimit:4;stroke-opacity:1;stroke-dasharray:none"
       d="m 71.920895,38.923959 c -5.552314,-0.0861 -6.660981,-0.189442 -8.714051,-0.812245 l -1.358464,-0.412092 0,-2.760995 c 0,-1.518548 0.01863,-2.760996 0.04141,-2.760996 0.02277,0 0.574441,0.180657 1.225931,0.401459 2.113283,0.716232 3.092442,0.803067 9.93171,0.880782 6.939518,0.07885 12.121509,-0.08345 13.377692,-0.41899 0.432877,-0.115627 1.133646,-0.350228 1.557264,-0.521335 l 0.770216,-0.311104 -4e-6,2.46959 -4e-6,2.469589 -0.488691,0.389928 c -0.655598,0.523104 -1.899488,0.957516 -3.243411,1.132717 -1.745834,0.227598 -7.542776,0.339864 -13.099593,0.253692 z"
       id="path6844"
       inkscape:connector-curvature="0"
       transform="translate(0,944.52209)" />
    <path
       style="fill:#eaf3f7;fill-opacity:1;stroke:#231668;stroke-width:0.02650662;stroke-linecap:round;stroke-linejoin:round;stroke-miterlimit:4;stroke-opacity:1;stroke-dasharray:none"
       d="m 67.878635,44.821303 c -1.786105,-0.08805 -3.324653,-0.332931 -4.671791,-0.743585 l -1.358464,-0.414107 0,-2.620058 0,-2.620059 1.09786,0.371101 c 2.31315,0.781894 3.552734,0.868424 12.354249,0.862392 8.379523,-0.0057 9.916917,-0.08686 11.596646,-0.611849 0.473805,-0.148086 1.085114,-0.412804 1.358464,-0.588263 l 0.496999,-0.319015 0,2.442455 0,2.442455 -0.629532,0.45701 c -0.721683,0.523906 -1.939649,0.955295 -3.280194,1.161804 -0.879051,0.135417 -14.85865,0.283516 -16.964237,0.179719 z"
       id="path6846"
       inkscape:connector-curvature="0"
       transform="translate(0,944.52209)" />
    <path
       style="fill:#eaf3f7;fill-opacity:1;stroke:#231668;stroke-width:0.02650662;stroke-linecap:round;stroke-linejoin:round;stroke-miterlimit:4;stroke-opacity:1;stroke-dasharray:none"
       d="m 63.902643,50.283334 c -0.788215,-0.373262 -1.424963,-1.009317 -1.739762,-1.737865 -0.258129,-0.597398 -0.44607,-4.04226 -0.220533,-4.04226 0.06857,0 0.539459,0.141079 1.046422,0.313508 1.935729,0.658384 3.920359,0.787587 12.112919,0.788572 4.897682,5.83e-4 8.038302,-0.05455 9.078517,-0.159377 1.756301,-0.176996 3.459167,-0.656017 4.141659,-1.165059 l 0.430733,-0.321266 0,2.034986 c 0,1.921358 -0.01908,2.073266 -0.341637,2.720563 -0.379492,0.761539 -0.915149,1.273578 -1.712626,1.637111 -0.499073,0.227505 -1.16297,0.241758 -11.33158,0.243279 l -10.801447,0.0016 -0.662665,-0.313808 0,0 z"
       id="path6848"
       inkscape:connector-curvature="0"
       transform="translate(0,944.52209)" />
  </g>
</svg>
